<svg width="420" height="380" viewBox="0 0 420 380" fill="none" xmlns="http://www.w3.org/2000/svg">
<mask id="mask0_33_85" style="mask-type:luminance" maskUnits="userSpaceOnUse" x="0" y="0" width="420" height="380">
<path d="M0 0H420V380H0V0Z" fill="white"/>
</mask>
<g mask="url(#mask0_33_85)">
<mask id="mask1_33_85" style="mask-type:luminance" maskUnits="userSpaceOnUse" x="0" y="0" width="420" height="380">
<path d="M0 0H420V380H0V0Z" fill="white"/>
</mask>
<g mask="url(#mask1_33_85)">
<g opacity="0.2">
<mask id="mask2_33_85" style="mask-type:luminance" maskUnits="userSpaceOnUse" x="284" y="163" width="60" height="46">
<path d="M284 163H344V209H284V163Z" fill="white"/>
</mask>
<g mask="url(#mask2_33_85)">
<path d="M342 165L301.931 174.82L285 208L342 165Z" fill="white"/>
</g>
</g>
</g>
<mask id="mask3_33_85" style="mask-type:luminance" maskUnits="userSpaceOnUse" x="0" y="0" width="420" height="380">
<path d="M0 0H420V380H0V0Z" fill="white"/>
</mask>
<g mask="url(#mask3_33_85)">
<g opacity="0.4">
<mask id="mask4_33_85" style="mask-type:luminance" maskUnits="userSpaceOnUse" x="285" y="165" width="61" height="46">
<path d="M285 165H346V211H285V165Z" fill="white"/>
</mask>
<g mask="url(#mask4_33_85)">
<path d="M332.87 210L344 167L286 210H332.87Z" fill="white"/>
</g>
</g>
</g>
</g>
<mask id="mask5_33_85" style="mask-type:luminance" maskUnits="userSpaceOnUse" x="0" y="0" width="420" height="380">
<path d="M0 0H420V380H0V0Z" fill="white"/>
</mask>
<g mask="url(#mask5_33_85)">
<path d="M282.945 212H333L304.666 226H276L282.945 212Z" fill="white"/>
</g>
<mask id="mask6_33_85" style="mask-type:luminance" maskUnits="userSpaceOnUse" x="0" y="0" width="420" height="380">
<path d="M0 0H420V380H0V0Z" fill="white"/>
</mask>
<g mask="url(#mask6_33_85)">
<mask id="mask7_33_85" style="mask-type:luminance" maskUnits="userSpaceOnUse" x="0" y="0" width="420" height="380">
<path d="M0 0H420V380H0V0Z" fill="white"/>
</mask>
<g mask="url(#mask7_33_85)">
<g opacity="0.8">
<mask id="mask8_33_85" style="mask-type:luminance" maskUnits="userSpaceOnUse" x="232" y="182" width="40" height="46">
<path d="M232 182H272V228H232V182Z" fill="white"/>
</mask>
<g mask="url(#mask8_33_85)">
<path d="M270 227L256.492 184L233 227H270Z" fill="white"/>
</g>
</g>
</g>
</g>
<mask id="mask9_33_85" style="mask-type:luminance" maskUnits="userSpaceOnUse" x="0" y="0" width="420" height="380">
<path d="M0 0H420V380H0V0Z" fill="white"/>
</mask>
<g mask="url(#mask9_33_85)">
<path d="M212 198.793L231.744 224L254 183L212 198.793Z" fill="white"/>
</g>
<mask id="mask10_33_85" style="mask-type:luminance" maskUnits="userSpaceOnUse" x="0" y="0" width="420" height="380">
<path d="M0 0H420V380H0V0Z" fill="white"/>
</mask>
<g mask="url(#mask10_33_85)">
<path d="M251 180.921L229.336 170L211 195L251 180.921Z" fill="white"/>
</g>
<mask id="mask11_33_85" style="mask-type:luminance" maskUnits="userSpaceOnUse" x="0" y="0" width="420" height="380">
<path d="M0 0H420V380H0V0Z" fill="white"/>
</mask>
<g mask="url(#mask11_33_85)">
<mask id="mask12_33_85" style="mask-type:luminance" maskUnits="userSpaceOnUse" x="0" y="0" width="420" height="380">
<path d="M0 0H420V380H0V0Z" fill="white"/>
</mask>
<g mask="url(#mask12_33_85)">
<g opacity="0.6">
<mask id="mask13_33_85" style="mask-type:luminance" maskUnits="userSpaceOnUse" x="211" y="305" width="14" height="25">
<path d="M211 305H225V330H211V305Z" fill="white"/>
</mask>
<g mask="url(#mask13_33_85)">
<path d="M223 329V307L212 317.615L223 329Z" fill="white"/>
</g>
</g>
</g>
<mask id="mask14_33_85" style="mask-type:luminance" maskUnits="userSpaceOnUse" x="0" y="0" width="420" height="380">
<path d="M0 0H420V380H0V0Z" fill="white"/>
</mask>
<g mask="url(#mask14_33_85)">
<g opacity="0.4">
<mask id="mask15_33_85" style="mask-type:luminance" maskUnits="userSpaceOnUse" x="226" y="228" width="26" height="67">
<path d="M226 228H252V295H226V228Z" fill="white"/>
</mask>
<g mask="url(#mask15_33_85)">
<path d="M227 294L250 230H232.844L227 294Z" fill="white"/>
</g>
</g>
</g>
</g>
<mask id="mask16_33_85" style="mask-type:luminance" maskUnits="userSpaceOnUse" x="0" y="0" width="420" height="380">
<path d="M0 0H420V380H0V0Z" fill="white"/>
</mask>
<g mask="url(#mask16_33_85)">
<path d="M259.069 266L270 229H253L259.069 266Z" fill="white"/>
</g>
<mask id="mask17_33_85" style="mask-type:luminance" maskUnits="userSpaceOnUse" x="0" y="0" width="420" height="380">
<path d="M0 0H420V380H0V0Z" fill="white"/>
</mask>
<g mask="url(#mask17_33_85)">
<mask id="mask18_33_85" style="mask-type:luminance" maskUnits="userSpaceOnUse" x="0" y="0" width="420" height="380">
<path d="M0 0H420V380H0V0Z" fill="white"/>
</mask>
<g mask="url(#mask18_33_85)">
<g opacity="0.6">
<mask id="mask19_33_85" style="mask-type:luminance" maskUnits="userSpaceOnUse" x="228" y="234" width="31" height="64">
<path d="M228 234H259V298H228V234Z" fill="white"/>
</mask>
<g mask="url(#mask19_33_85)">
<path d="M229 297L251.216 236L257 270.526L229 297Z" fill="white"/>
</g>
</g>
</g>
<mask id="mask20_33_85" style="mask-type:luminance" maskUnits="userSpaceOnUse" x="0" y="0" width="420" height="380">
<path d="M0 0H420V380H0V0Z" fill="white"/>
</mask>
<g mask="url(#mask20_33_85)">
<g opacity="0.4">
<mask id="mask21_33_85" style="mask-type:luminance" maskUnits="userSpaceOnUse" x="224" y="271" width="35" height="58">
<path d="M224 271H259V329H224V271Z" fill="white"/>
</mask>
<g mask="url(#mask21_33_85)">
<path d="M257 273L225 303.486V328L257 273Z" fill="white"/>
</g>
</g>
</g>
<mask id="mask22_33_85" style="mask-type:luminance" maskUnits="userSpaceOnUse" x="0" y="0" width="420" height="380">
<path d="M0 0H420V380H0V0Z" fill="white"/>
</mask>
<g mask="url(#mask22_33_85)">
<g opacity="0.2">
<mask id="mask23_33_85" style="mask-type:luminance" maskUnits="userSpaceOnUse" x="243" y="272" width="19" height="98">
<path d="M243 272H262V370H243V272Z" fill="white"/>
</mask>
<g mask="url(#mask23_33_85)">
<path d="M244.024 369L260 331.551L259.982 274L244 302.369" fill="white"/>
</g>
</g>
</g>
<mask id="mask24_33_85" style="mask-type:luminance" maskUnits="userSpaceOnUse" x="0" y="0" width="420" height="380">
<path d="M0 0H420V380H0V0Z" fill="white"/>
</mask>
<g mask="url(#mask24_33_85)">
<g opacity="0.4">
<mask id="mask25_33_85" style="mask-type:luminance" maskUnits="userSpaceOnUse" x="212" y="306" width="31" height="76">
<path d="M212 306H243V382H212V306Z" fill="white"/>
</mask>
<g mask="url(#mask25_33_85)">
<path d="M213 381L241 371.387V308L226.607 333.337L213 381Z" fill="white"/>
</g>
</g>
</g>
</g>
<mask id="mask26_33_85" style="mask-type:luminance" maskUnits="userSpaceOnUse" x="0" y="0" width="420" height="380">
<path d="M0 0H420V380H0V0Z" fill="white"/>
</mask>
<g mask="url(#mask26_33_85)">
<path d="M299 175L265 198.462L273.133 225L299 175Z" fill="white"/>
</g>
<mask id="mask27_33_85" style="mask-type:luminance" maskUnits="userSpaceOnUse" x="0" y="0" width="420" height="380">
<path d="M0 0H420V380H0V0Z" fill="white"/>
</mask>
<g mask="url(#mask27_33_85)">
<mask id="mask28_33_85" style="mask-type:luminance" maskUnits="userSpaceOnUse" x="0" y="0" width="420" height="380">
<path d="M0 0H420V380H0V0Z" fill="white"/>
</mask>
<g mask="url(#mask28_33_85)">
<g opacity="0.2">
<mask id="mask29_33_85" style="mask-type:luminance" maskUnits="userSpaceOnUse" x="362" y="8" width="33" height="85">
<path d="M362 8H395V93H362V8Z" fill="white"/>
</mask>
<g mask="url(#mask29_33_85)">
<path d="M393 10L380.946 92L363 88.2507L393 10Z" fill="white"/>
</g>
</g>
</g>
<mask id="mask30_33_85" style="mask-type:luminance" maskUnits="userSpaceOnUse" x="0" y="0" width="420" height="380">
<path d="M0 0H420V380H0V0Z" fill="white"/>
</mask>
<g mask="url(#mask30_33_85)">
<g opacity="0.4">
<mask id="mask31_33_85" style="mask-type:luminance" maskUnits="userSpaceOnUse" x="353" y="89" width="69" height="23">
<path d="M353 89H422V112H353V89Z" fill="white"/>
</mask>
<g mask="url(#mask31_33_85)">
<path d="M420 103.055L354 111L362.148 91L420 103.055Z" fill="white"/>
</g>
</g>
</g>
<mask id="mask32_33_85" style="mask-type:luminance" maskUnits="userSpaceOnUse" x="0" y="0" width="420" height="380">
<path d="M0 0H420V380H0V0Z" fill="white"/>
</mask>
<g mask="url(#mask32_33_85)">
<g opacity="0.8">
<mask id="mask33_33_85" style="mask-type:luminance" maskUnits="userSpaceOnUse" x="349" y="-2" width="31" height="66">
<path d="M349 -2H380V64H349V-2Z" fill="white"/>
</mask>
<g mask="url(#mask33_33_85)">
<path d="M378 39.4786L350 0L368.907 63L378 39.4786Z" fill="white"/>
</g>
</g>
</g>
</g>
<mask id="mask34_33_85" style="mask-type:luminance" maskUnits="userSpaceOnUse" x="0" y="0" width="420" height="380">
<path d="M0 0H420V380H0V0Z" fill="white"/>
</mask>
<g mask="url(#mask34_33_85)">
<path d="M339 90L344.471 128L359 90H339Z" fill="white"/>
</g>
<mask id="mask35_33_85" style="mask-type:luminance" maskUnits="userSpaceOnUse" x="0" y="0" width="420" height="380">
<path d="M0 0H420V380H0V0Z" fill="white"/>
</mask>
<g mask="url(#mask35_33_85)">
<mask id="mask36_33_85" style="mask-type:luminance" maskUnits="userSpaceOnUse" x="0" y="0" width="420" height="380">
<path d="M0 0H420V380H0V0Z" fill="white"/>
</mask>
<g mask="url(#mask36_33_85)">
<g opacity="0.6">
<mask id="mask37_33_85" style="mask-type:luminance" maskUnits="userSpaceOnUse" x="316" y="91" width="26" height="39">
<path d="M316 91H342V130H316V91Z" fill="white"/>
</mask>
<g mask="url(#mask37_33_85)">
<path d="M340 129L335.642 93L317 129H340Z" fill="white"/>
</g>
</g>
</g>
<mask id="mask38_33_85" style="mask-type:luminance" maskUnits="userSpaceOnUse" x="0" y="0" width="420" height="380">
<path d="M0 0H420V380H0V0Z" fill="white"/>
</mask>
<g mask="url(#mask38_33_85)">
<g opacity="0.4">
<mask id="mask39_33_85" style="mask-type:luminance" maskUnits="userSpaceOnUse" x="241" y="69" width="22" height="60">
<path d="M241 69H263V129H241V69Z" fill="white"/>
</mask>
<g mask="url(#mask39_33_85)">
<path d="M242 128V71L261 128H242Z" fill="white"/>
</g>
</g>
</g>
<mask id="mask40_33_85" style="mask-type:luminance" maskUnits="userSpaceOnUse" x="0" y="0" width="420" height="380">
<path d="M0 0H420V380H0V0Z" fill="white"/>
</mask>
<g mask="url(#mask40_33_85)">
<g opacity="0.2">
<mask id="mask41_33_85" style="mask-type:luminance" maskUnits="userSpaceOnUse" x="241" y="129" width="71" height="24">
<path d="M241 129H312V153H241V129Z" fill="white"/>
</mask>
<g mask="url(#mask41_33_85)">
<path d="M273.954 152L310 131H242L273.954 152Z" fill="white"/>
</g>
</g>
</g>
<mask id="mask42_33_85" style="mask-type:luminance" maskUnits="userSpaceOnUse" x="0" y="0" width="420" height="380">
<path d="M0 0H420V380H0V0Z" fill="white"/>
</mask>
<g mask="url(#mask42_33_85)">
<g opacity="0.4">
<mask id="mask43_33_85" style="mask-type:luminance" maskUnits="userSpaceOnUse" x="230" y="137" width="28" height="45">
<path d="M230 137H258V182H230V137Z" fill="white"/>
</mask>
<g mask="url(#mask43_33_85)">
<path d="M256 181L241.553 139L231 167.676L256 181Z" fill="white"/>
</g>
</g>
</g>
</g>
<mask id="mask44_33_85" style="mask-type:luminance" maskUnits="userSpaceOnUse" x="0" y="0" width="420" height="380">
<path d="M0 0H420V380H0V0Z" fill="white"/>
</mask>
<g mask="url(#mask44_33_85)">
<path d="M274 154.138L243 134L258.486 179L274 154.138Z" fill="white"/>
</g>
<mask id="mask45_33_85" style="mask-type:luminance" maskUnits="userSpaceOnUse" x="0" y="0" width="420" height="380">
<path d="M0 0H420V380H0V0Z" fill="white"/>
</mask>
<g mask="url(#mask45_33_85)">
<path d="M326 105L293 128L313.79 127.958L326 105Z" fill="white"/>
</g>
<mask id="mask46_33_85" style="mask-type:luminance" maskUnits="userSpaceOnUse" x="0" y="0" width="420" height="380">
<path d="M0 0H420V380H0V0Z" fill="white"/>
</mask>
<g mask="url(#mask46_33_85)">
<path d="M310 112L326 100.97V70L310 112Z" fill="white"/>
</g>
<mask id="mask47_33_85" style="mask-type:luminance" maskUnits="userSpaceOnUse" x="0" y="0" width="420" height="380">
<path d="M0 0H420V380H0V0Z" fill="white"/>
</mask>
<g mask="url(#mask47_33_85)">
<mask id="mask48_33_85" style="mask-type:luminance" maskUnits="userSpaceOnUse" x="0" y="0" width="420" height="380">
<path d="M0 0H420V380H0V0Z" fill="white"/>
</mask>
<g mask="url(#mask48_33_85)">
<g opacity="0.2">
<mask id="mask49_33_85" style="mask-type:luminance" maskUnits="userSpaceOnUse" x="76" y="163" width="60" height="46">
<path d="M76 163H136V209H76V163Z" fill="white"/>
</mask>
<g mask="url(#mask49_33_85)">
<path d="M77 165L117.07 174.82L134 208L77 165Z" fill="white"/>
</g>
</g>
</g>
<mask id="mask50_33_85" style="mask-type:luminance" maskUnits="userSpaceOnUse" x="0" y="0" width="420" height="380">
<path d="M0 0H420V380H0V0Z" fill="white"/>
</mask>
<g mask="url(#mask50_33_85)">
<g opacity="0.4">
<mask id="mask51_33_85" style="mask-type:luminance" maskUnits="userSpaceOnUse" x="74" y="165" width="61" height="46">
<path d="M74 165H135V211H74V165Z" fill="white"/>
</mask>
<g mask="url(#mask51_33_85)">
<path d="M86.1307 210L75 167L133 210H86.1307Z" fill="white"/>
</g>
</g>
</g>
</g>
<mask id="mask52_33_85" style="mask-type:luminance" maskUnits="userSpaceOnUse" x="0" y="0" width="420" height="380">
<path d="M0 0H420V380H0V0Z" fill="white"/>
</mask>
<g mask="url(#mask52_33_85)">
<path d="M137.052 212H87L115.334 226H144L137.052 212Z" fill="white"/>
</g>
<mask id="mask53_33_85" style="mask-type:luminance" maskUnits="userSpaceOnUse" x="0" y="0" width="420" height="380">
<path d="M0 0H420V380H0V0Z" fill="white"/>
</mask>
<g mask="url(#mask53_33_85)">
<mask id="mask54_33_85" style="mask-type:luminance" maskUnits="userSpaceOnUse" x="0" y="0" width="420" height="380">
<path d="M0 0H420V380H0V0Z" fill="white"/>
</mask>
<g mask="url(#mask54_33_85)">
<g opacity="0.8">
<mask id="mask55_33_85" style="mask-type:luminance" maskUnits="userSpaceOnUse" x="149" y="182" width="40" height="46">
<path d="M149 182H189V228H149V182Z" fill="white"/>
</mask>
<g mask="url(#mask55_33_85)">
<path d="M150 227L163.456 184L187 226.952L150 227Z" fill="white"/>
</g>
</g>
</g>
<mask id="mask56_33_85" style="mask-type:luminance" maskUnits="userSpaceOnUse" x="0" y="0" width="420" height="380">
<path d="M0 0H420V380H0V0Z" fill="white"/>
</mask>
<g mask="url(#mask56_33_85)">
<g opacity="0.4">
<mask id="mask57_33_85" style="mask-type:luminance" maskUnits="userSpaceOnUse" x="192" y="167" width="37" height="27">
<path d="M192 167H229V194H192V167Z" fill="white"/>
</mask>
<g mask="url(#mask57_33_85)">
<path d="M193 169H211.391H227L210 193L193 169Z" fill="white"/>
</g>
</g>
</g>
</g>
<mask id="mask58_33_85" style="mask-type:luminance" maskUnits="userSpaceOnUse" x="0" y="0" width="420" height="380">
<path d="M0 0H420V380H0V0Z" fill="white"/>
</mask>
<g mask="url(#mask58_33_85)">
<path d="M208 198.793L188.256 224L166 183L208 198.793Z" fill="white"/>
</g>
<mask id="mask59_33_85" style="mask-type:luminance" maskUnits="userSpaceOnUse" x="0" y="0" width="420" height="380">
<path d="M0 0H420V380H0V0Z" fill="white"/>
</mask>
<g mask="url(#mask59_33_85)">
<path d="M169 180.921L190.665 170L209 195L169 180.921Z" fill="white"/>
</g>
<mask id="mask60_33_85" style="mask-type:luminance" maskUnits="userSpaceOnUse" x="0" y="0" width="420" height="380">
<path d="M0 0H420V380H0V0Z" fill="white"/>
</mask>
<g mask="url(#mask60_33_85)">
<path d="M210.499 201L231 226.829L224.469 299H211.904H196.534L190 226.829L210.499 201.133V201.135V201Z" fill="white"/>
</g>
<mask id="mask61_33_85" style="mask-type:luminance" maskUnits="userSpaceOnUse" x="0" y="0" width="420" height="380">
<path d="M0 0H420V380H0V0Z" fill="white"/>
</mask>
<g mask="url(#mask61_33_85)">
<path d="M196 302H210H224L210 315L196 302Z" fill="white"/>
</g>
<mask id="mask62_33_85" style="mask-type:luminance" maskUnits="userSpaceOnUse" x="0" y="0" width="420" height="380">
<path d="M0 0H420V380H0V0Z" fill="white"/>
</mask>
<g mask="url(#mask62_33_85)">
<path d="M210 331H223L210.002 318V318.024L210 318L197 331H210Z" fill="white"/>
</g>
<mask id="mask63_33_85" style="mask-type:luminance" maskUnits="userSpaceOnUse" x="0" y="0" width="420" height="380">
<path d="M0 0H420V380H0V0Z" fill="white"/>
</mask>
<g mask="url(#mask63_33_85)">
<mask id="mask64_33_85" style="mask-type:luminance" maskUnits="userSpaceOnUse" x="0" y="0" width="420" height="380">
<path d="M0 0H420V380H0V0Z" fill="white"/>
</mask>
<g mask="url(#mask64_33_85)">
<g opacity="0.6">
<mask id="mask65_33_85" style="mask-type:luminance" maskUnits="userSpaceOnUse" x="195" y="305" width="14" height="25">
<path d="M195 305H209V330H195V305Z" fill="white"/>
</mask>
<g mask="url(#mask65_33_85)">
<path d="M196 329V307L207 317.615L196 329Z" fill="white"/>
</g>
</g>
</g>
<mask id="mask66_33_85" style="mask-type:luminance" maskUnits="userSpaceOnUse" x="0" y="0" width="420" height="380">
<path d="M0 0H420V380H0V0Z" fill="white"/>
</mask>
<g mask="url(#mask66_33_85)">
<g opacity="0.4">
<mask id="mask67_33_85" style="mask-type:luminance" maskUnits="userSpaceOnUse" x="168" y="228" width="26" height="67">
<path d="M168 228H194V295H168V228Z" fill="white"/>
</mask>
<g mask="url(#mask67_33_85)">
<path d="M192 294L169 230H186.155L192 294Z" fill="white"/>
</g>
</g>
</g>
</g>
<mask id="mask68_33_85" style="mask-type:luminance" maskUnits="userSpaceOnUse" x="0" y="0" width="420" height="380">
<path d="M0 0H420V380H0V0Z" fill="white"/>
</mask>
<g mask="url(#mask68_33_85)">
<path d="M159.932 266L149 229H166L159.932 266Z" fill="white"/>
</g>
<mask id="mask69_33_85" style="mask-type:luminance" maskUnits="userSpaceOnUse" x="0" y="0" width="420" height="380">
<path d="M0 0H420V380H0V0Z" fill="white"/>
</mask>
<g mask="url(#mask69_33_85)">
<mask id="mask70_33_85" style="mask-type:luminance" maskUnits="userSpaceOnUse" x="0" y="0" width="420" height="380">
<path d="M0 0H420V380H0V0Z" fill="white"/>
</mask>
<g mask="url(#mask70_33_85)">
<g opacity="0.6">
<mask id="mask71_33_85" style="mask-type:luminance" maskUnits="userSpaceOnUse" x="161" y="234" width="31" height="64">
<path d="M161 234H192V298H161V234Z" fill="white"/>
</mask>
<g mask="url(#mask71_33_85)">
<path d="M190 297L167.785 236L162 270.526L190 297Z" fill="white"/>
</g>
</g>
</g>
<mask id="mask72_33_85" style="mask-type:luminance" maskUnits="userSpaceOnUse" x="0" y="0" width="420" height="380">
<path d="M0 0H420V380H0V0Z" fill="white"/>
</mask>
<g mask="url(#mask72_33_85)">
<g opacity="0.4">
<mask id="mask73_33_85" style="mask-type:luminance" maskUnits="userSpaceOnUse" x="160" y="271" width="35" height="58">
<path d="M160 271H195V329H160V271Z" fill="white"/>
</mask>
<g mask="url(#mask73_33_85)">
<path d="M161 273L193 303.486V328L161 273Z" fill="white"/>
</g>
</g>
</g>
<mask id="mask74_33_85" style="mask-type:luminance" maskUnits="userSpaceOnUse" x="0" y="0" width="420" height="380">
<path d="M0 0H420V380H0V0Z" fill="white"/>
</mask>
<g mask="url(#mask74_33_85)">
<g opacity="0.2">
<mask id="mask75_33_85" style="mask-type:luminance" maskUnits="userSpaceOnUse" x="158" y="272" width="19" height="98">
<path d="M158 272H177V370H158V272Z" fill="white"/>
</mask>
<g mask="url(#mask75_33_85)">
<path d="M174.976 369L159 331.551L159.021 274L175 302.369" fill="white"/>
</g>
</g>
</g>
<mask id="mask76_33_85" style="mask-type:luminance" maskUnits="userSpaceOnUse" x="0" y="0" width="420" height="380">
<path d="M0 0H420V380H0V0Z" fill="white"/>
</mask>
<g mask="url(#mask76_33_85)">
<g opacity="0.4">
<mask id="mask77_33_85" style="mask-type:luminance" maskUnits="userSpaceOnUse" x="177" y="306" width="31" height="76">
<path d="M177 306H208V382H177V306Z" fill="white"/>
</mask>
<g mask="url(#mask77_33_85)">
<path d="M206 381L178 371.387V308L192.396 333.337L206 381Z" fill="white"/>
</g>
</g>
</g>
<mask id="mask78_33_85" style="mask-type:luminance" maskUnits="userSpaceOnUse" x="0" y="0" width="420" height="380">
<path d="M0 0H420V380H0V0Z" fill="white"/>
</mask>
<g mask="url(#mask78_33_85)">
<g opacity="0.8">
<mask id="mask79_33_85" style="mask-type:luminance" maskUnits="userSpaceOnUse" x="195" y="333" width="30" height="48">
<path d="M195 333H225V381H195V333Z" fill="white"/>
</mask>
<g mask="url(#mask79_33_85)">
<path d="M208.83 335H223L209.5 380L196 335H208.83Z" fill="white"/>
</g>
</g>
</g>
</g>
<mask id="mask80_33_85" style="mask-type:luminance" maskUnits="userSpaceOnUse" x="0" y="0" width="420" height="380">
<path d="M0 0H420V380H0V0Z" fill="white"/>
</mask>
<g mask="url(#mask80_33_85)">
<path d="M121 175L155 198.462L146.867 225L121 175Z" fill="white"/>
</g>
<mask id="mask81_33_85" style="mask-type:luminance" maskUnits="userSpaceOnUse" x="0" y="0" width="420" height="380">
<path d="M0 0H420V380H0V0Z" fill="white"/>
</mask>
<g mask="url(#mask81_33_85)">
<mask id="mask82_33_85" style="mask-type:luminance" maskUnits="userSpaceOnUse" x="0" y="0" width="420" height="380">
<path d="M0 0H420V380H0V0Z" fill="white"/>
</mask>
<g mask="url(#mask82_33_85)">
<g opacity="0.2">
<mask id="mask83_33_85" style="mask-type:luminance" maskUnits="userSpaceOnUse" x="25" y="8" width="33" height="85">
<path d="M25 8H58V93H25V8Z" fill="white"/>
</mask>
<g mask="url(#mask83_33_85)">
<path d="M26 10L38.0558 92L56 88.2507L26 10Z" fill="white"/>
</g>
</g>
</g>
<mask id="mask84_33_85" style="mask-type:luminance" maskUnits="userSpaceOnUse" x="0" y="0" width="420" height="380">
<path d="M0 0H420V380H0V0Z" fill="white"/>
</mask>
<g mask="url(#mask84_33_85)">
<g opacity="0.4">
<mask id="mask85_33_85" style="mask-type:luminance" maskUnits="userSpaceOnUse" x="-2" y="89" width="69" height="23">
<path d="M-2 89H67V112H-2V89Z" fill="white"/>
</mask>
<g mask="url(#mask85_33_85)">
<path d="M65 111L-1 103.055L56.8532 91L65 111Z" fill="white"/>
</g>
</g>
</g>
<mask id="mask86_33_85" style="mask-type:luminance" maskUnits="userSpaceOnUse" x="0" y="0" width="420" height="380">
<path d="M0 0H420V380H0V0Z" fill="white"/>
</mask>
<g mask="url(#mask86_33_85)">
<g opacity="0.8">
<mask id="mask87_33_85" style="mask-type:luminance" maskUnits="userSpaceOnUse" x="40" y="-2" width="31" height="66">
<path d="M40 -2H71V64H40V-2Z" fill="white"/>
</mask>
<g mask="url(#mask87_33_85)">
<path d="M41 39.4786L69 0L50.0935 63L41 39.4786Z" fill="white"/>
</g>
</g>
</g>
</g>
<mask id="mask88_33_85" style="mask-type:luminance" maskUnits="userSpaceOnUse" x="0" y="0" width="420" height="380">
<path d="M0 0H420V380H0V0Z" fill="white"/>
</mask>
<g mask="url(#mask88_33_85)">
<path d="M81 90L75.5282 128L61 90H81Z" fill="white"/>
</g>
<mask id="mask89_33_85" style="mask-type:luminance" maskUnits="userSpaceOnUse" x="0" y="0" width="420" height="380">
<path d="M0 0H420V380H0V0Z" fill="white"/>
</mask>
<g mask="url(#mask89_33_85)">
<mask id="mask90_33_85" style="mask-type:luminance" maskUnits="userSpaceOnUse" x="0" y="0" width="420" height="380">
<path d="M0 0H420V380H0V0Z" fill="white"/>
</mask>
<g mask="url(#mask90_33_85)">
<g opacity="0.6">
<mask id="mask91_33_85" style="mask-type:luminance" maskUnits="userSpaceOnUse" x="78" y="91" width="26" height="39">
<path d="M78 91H104V130H78V91Z" fill="white"/>
</mask>
<g mask="url(#mask91_33_85)">
<path d="M79 129L83.3595 93L102 129H79Z" fill="white"/>
</g>
</g>
</g>
<mask id="mask92_33_85" style="mask-type:luminance" maskUnits="userSpaceOnUse" x="0" y="0" width="420" height="380">
<path d="M0 0H420V380H0V0Z" fill="white"/>
</mask>
<g mask="url(#mask92_33_85)">
<g opacity="0.4">
<mask id="mask93_33_85" style="mask-type:luminance" maskUnits="userSpaceOnUse" x="156" y="69" width="22" height="60">
<path d="M156 69H178V129H156V69Z" fill="white"/>
</mask>
<g mask="url(#mask93_33_85)">
<path d="M176 128V71L157 128H176Z" fill="white"/>
</g>
</g>
</g>
<mask id="mask94_33_85" style="mask-type:luminance" maskUnits="userSpaceOnUse" x="0" y="0" width="420" height="380">
<path d="M0 0H420V380H0V0Z" fill="white"/>
</mask>
<g mask="url(#mask94_33_85)">
<g opacity="0.2">
<mask id="mask95_33_85" style="mask-type:luminance" maskUnits="userSpaceOnUse" x="107" y="129" width="71" height="24">
<path d="M107 129H178V153H107V129Z" fill="white"/>
</mask>
<g mask="url(#mask95_33_85)">
<path d="M144.044 152L108 131H176L144.044 152Z" fill="white"/>
</g>
</g>
</g>
<mask id="mask96_33_85" style="mask-type:luminance" maskUnits="userSpaceOnUse" x="0" y="0" width="420" height="380">
<path d="M0 0H420V380H0V0Z" fill="white"/>
</mask>
<g mask="url(#mask96_33_85)">
<g opacity="0.4">
<mask id="mask97_33_85" style="mask-type:luminance" maskUnits="userSpaceOnUse" x="163" y="137" width="28" height="45">
<path d="M163 137H191V182H163V137Z" fill="white"/>
</mask>
<g mask="url(#mask97_33_85)">
<path d="M164 181L178.445 139L189 167.676L164 181Z" fill="white"/>
</g>
</g>
</g>
</g>
<mask id="mask98_33_85" style="mask-type:luminance" maskUnits="userSpaceOnUse" x="0" y="0" width="420" height="380">
<path d="M0 0H420V380H0V0Z" fill="white"/>
</mask>
<g mask="url(#mask98_33_85)">
<path d="M146 154.138L177 134L161.514 179L146 154.138Z" fill="white"/>
</g>
<mask id="mask99_33_85" style="mask-type:luminance" maskUnits="userSpaceOnUse" x="0" y="0" width="420" height="380">
<path d="M0 0H420V380H0V0Z" fill="white"/>
</mask>
<g mask="url(#mask99_33_85)">
<path d="M94 105L127 128L106.208 127.958L94 105Z" fill="white"/>
</g>
<mask id="mask100_33_85" style="mask-type:luminance" maskUnits="userSpaceOnUse" x="0" y="0" width="420" height="380">
<path d="M0 0H420V380H0V0Z" fill="white"/>
</mask>
<g mask="url(#mask100_33_85)">
<path d="M110 112L94 100.97V70L110 112Z" fill="white"/>
</g>
</svg>
