<svg width="13" height="12" viewBox="0 0 13 12" fill="currentColor" xmlns="http://www.w3.org/2000/svg">
<path d="M4.60332 11.7455C4.13285 11.4104 4.01851 10.7508 4.34794 10.2722L11.1081 0.451192C11.4375 -0.0273946 12.086 -0.143705 12.5565 0.191405C13.0269 0.526515 13.1413 1.18615 12.8118 1.66473L6.05168 11.4857C5.72225 11.9643 5.0738 12.0806 4.60332 11.7455Z" />
<path d="M0.18816 7.50367C0.51759 7.02508 1.16604 6.90877 1.63651 7.24388L5.6119 10.0755C6.08238 10.4106 6.19672 11.0702 5.86729 11.5488C5.53786 12.0274 4.88941 12.1437 4.41893 11.8086L0.443544 8.977C-0.0269302 8.64189 -0.141269 7.98225 0.18816 7.50367Z" />
</svg>
