<svg width="206" height="40" viewBox="0 0 206 40" fill="none" xmlns="http://www.w3.org/2000/svg">
<path d="M24.2977 38.4215C24.4149 37.9251 32.5 7.60863 32.5 7.60863C32.5567 7.33137 32.889 6.49786 33.4414 6.49786C33.9942 6.49786 34.3233 7.33103 34.379 7.60863C34.379 7.60863 40.9519 32.3472 42.3317 37.4237C43.4618 41.5683 50.1903 40.6299 48.8157 35.2018C47.8712 31.4664 41.233 6.88839 41.233 6.88839C39.7972 1.55654 36.37 0 33.4414 0C30.4561 0 27.143 1.55584 25.7041 6.88839C25.7041 6.88839 19.5188 28.9579 18.5197 32.2996C18.3738 32.7878 17.98 33.401 17.0521 33.401C16.1221 33.401 9.53193 33.4069 8.18914 33.4083C7.19588 33.4083 6.44151 32.7489 6.44808 31.6207C6.44808 31.6207 6.51965 6.9002 6.43806 3.27429C6.34125 -1.03677 -0.00656364 -1.04685 5.09447e-06 3.27429C0.00795672 7.60133 5.09447e-06 32.3073 5.09447e-06 36.7055C5.09447e-06 38.3997 1.28506 39.9843 3.25948 39.9843H16.6984L16.6956 39.9889C16.6956 39.9889 22.0232 39.9784 22.5072 39.9889C23.2827 39.9993 24.0229 39.6039 24.2977 38.4215Z" fill="#24272C"/>
<path d="M71.4206 27.4517V25.6119H64.4185V12.2058H62V27.8025H71.0816C71.2624 27.8025 71.4206 27.6271 71.4206 27.4517ZM76.5709 27.4517V12.2058H74.131V27.8025H76.2319C76.4128 27.8025 76.5709 27.6271 76.5709 27.4517ZM87.9841 25.3923L91.6674 12.2279H89.182L85.681 24.7569C85.4545 25.5912 85.275 25.8094 84.936 25.8094C84.6412 25.8094 84.4603 25.5912 84.2352 24.7569L80.7343 12.2279H78.2488L81.9307 25.3923C82.4962 27.4296 83.8065 28 84.936 28C86.0869 28 87.4201 27.4296 87.9841 25.3923ZM96.2894 27.4517V12.2058H93.8495V27.8025H95.9504C96.1313 27.8025 96.2894 27.6271 96.2894 27.4517ZM107.358 27.8025H110.158V12.2058H107.741V21.2307L107.899 23.6837L106.996 21.2307L103.992 14.7473C103.224 13.105 102.727 12.2058 100.897 12.2058H99.1352V27.8025H101.552V15.2749C101.621 15.4047 101.71 15.5345 101.802 15.7113L107.358 27.8025ZM118.923 27.9765C120.751 27.9765 122.467 27.4517 123.823 27.0359V19.9378L121.564 20.1354V25.4807C120.728 25.6768 119.621 25.808 118.923 25.808C115.985 25.808 115.263 23.8591 115.263 22.0401V18.0083C115.263 16.3218 115.669 14.2196 119.124 14.2196C120.368 14.2196 121.813 14.5276 122.943 14.855L123.486 12.7749C121.994 12.337 120.708 12.029 119.124 12.029C114.585 12.029 112.846 14.5705 112.846 17.7901V22.2376C112.846 25.5028 114.947 27.9765 118.923 27.9765ZM129.472 26.4006C129.472 25.5263 128.748 24.8025 127.868 24.8025C127.008 24.8025 126.286 25.5263 126.286 26.4006C126.286 27.2334 127.009 27.9779 127.868 27.9779C128.748 27.9765 129.472 27.2321 129.472 26.4006ZM142.362 27.8301H144.848L141.166 14.6658C140.602 12.6285 139.269 12.058 138.116 12.058C136.987 12.058 135.676 12.6285 135.112 14.6658L131.431 27.8301H133.915L137.416 15.2997C137.641 14.4682 137.823 14.2486 138.116 14.2486C138.455 14.2486 138.633 14.4682 138.861 15.2997L142.362 27.8301ZM148.604 21.9862V17.9793C148.604 16.2707 149.101 14.1906 152.127 14.1906C153.392 14.1906 155.154 14.5622 156.259 14.9116L156.802 12.7445C155.267 12.3273 153.775 12 152.149 12C147.993 12 146.185 14.5843 146.185 17.7611V22.2072C146.185 25.3826 147.993 27.9461 152.149 27.9461C153.912 27.9461 155.402 27.5276 156.825 27.1119L156.238 25.0111C155.153 25.3605 153.391 25.7776 152.126 25.7776C149.101 25.7762 148.604 23.6754 148.604 21.9862ZM165.454 14.3412H169.632V12.174H158.859V14.3412H163.015V27.7707H165.455V14.3412H165.454ZM174.603 27.4213V12.174H172.164V27.7707H174.264C174.445 27.7707 174.603 27.5953 174.603 27.4213ZM186.393 25.3702L190.075 12.2058H187.59L184.091 24.7362C183.863 25.5677 183.682 25.7859 183.345 25.7859C183.051 25.7859 182.87 25.5677 182.644 24.7362L179.143 12.2058H176.659L180.341 25.3702C180.905 27.4075 182.216 27.9765 183.345 27.9765C184.495 27.9765 185.829 27.4075 186.393 25.3702ZM200.579 27.4213V25.6022H196.129C194.322 25.6022 194.006 24.7486 194.006 23.4558V20.9158H200.196V18.7224H194.006V16.5111C194.006 15.2183 194.323 14.3426 196.129 14.3426H200.491V12.174H196.129C193.127 12.174 191.566 13.8163 191.566 16.2915V23.6754C191.566 26.1257 193.127 27.7707 196.129 27.7707H200.24C200.419 27.7707 200.579 27.5953 200.579 27.4213ZM206 26.3674C206 25.4917 205.276 24.7694 204.395 24.7694C203.536 24.7694 202.815 25.4917 202.815 26.3674C202.815 27.2016 203.537 27.9461 204.395 27.9461C205.276 27.9461 206 27.2016 206 26.3674Z" fill="#24272C"/>
</svg>
