<svg viewBox="0 0 100 100" fill="currentColor" xmlns="http://www.w3.org/2000/svg">
<path d="M95.2572 41.7778H81.5429V15.7407C81.5429 14.2333 80.3086 13 78.8 13H21.2C19.6914 13 18.4571 14.2333 18.4571 15.7407V41.7778H4.74286C3.23429 41.7778 2 43.0111 2 44.5185V84.2593C2 85.7667 3.23429 87 4.74286 87H40.4C41.9086 87 43.1429 85.7667 43.1429 84.2593V65.0741H56.8571V84.2593C56.8571 85.7667 58.0914 87 59.6 87H95.2572C96.7657 87 98 85.7667 98 84.2593V44.5185C98 43.0111 96.7657 41.7778 95.2572 41.7778ZM18.4571 81.5185H7.48571V47.2593H18.4571V81.5185ZM76.0571 81.5185H62.3429V62.3333C62.3429 60.8259 61.1086 59.5926 59.6 59.5926H40.4C38.8914 59.5926 37.6571 60.8259 37.6571 62.3333V81.5185H23.9429V18.4815H76.0571V81.5185ZM92.5143 81.5185H81.5429V47.2593H92.5143V81.5185Z" />
<path d="M49.9119 45.3682C49.963 45.1565 53.483 32.2315 53.483 32.2315C53.5077 32.1133 53.6523 31.7579 53.8929 31.7579C54.1335 31.7579 54.2768 32.1131 54.3011 32.2315C54.3011 32.2315 57.1627 42.7785 57.7635 44.9428C58.2555 46.7098 61.1849 46.3097 60.5864 43.9955C60.1752 42.403 57.2851 31.9244 57.2851 31.9244C56.66 29.6513 55.1679 28.9877 53.8929 28.9877C52.5931 28.9877 51.1507 29.651 50.5243 31.9244C50.5243 31.9244 47.8313 41.3335 47.3963 42.7582C47.3328 42.9663 47.1614 43.2278 46.7574 43.2278C46.3525 43.2278 43.4833 43.2303 42.8987 43.2309C42.4662 43.2309 42.1378 42.9497 42.1407 42.4687C42.1407 42.4687 42.1718 31.9295 42.1363 30.3836C42.0942 28.5456 39.3305 28.5413 39.3333 30.3836C39.3368 32.2284 39.3333 42.7614 39.3333 44.6366C39.3333 45.3589 39.8928 46.0345 40.7524 46.0345H46.6034L46.6022 46.0364C46.6022 46.0364 48.9217 46.032 49.1324 46.0364C49.47 46.0408 49.7923 45.8723 49.9119 45.3682Z" />
</svg>
