<?xml version="1.0" encoding="UTF-8"?>
<svg xmlns="http://www.w3.org/2000/svg" version="1.1" fill="currentColor" viewBox="0 0 100 100">
  <path class="cls-1" d="M94.1,18.3H26.3l-3.2-15.2c-.4-1.7-1.8-2.8-3.4-2.8H5.9c-1.9,0-3.5,1.6-3.5,3.6s1.6,3.6,3.5,3.6h11.1l10.7,50.6c-5.5,1.2-9.6,6.3-9.6,12.3s5.4,12.6,12.1,12.6h49.3c1.9,0,3.5-1.6,3.5-3.6s-1.6-3.6-3.5-3.6H30.1c-2.9,0-5.2-2.4-5.2-5.4s2.3-5.4,5.2-5.4h50.2c1.5,0,2.8-1,3.3-2.4l13.8-39.6c.4-1.1.2-2.3-.4-3.3-.7-1-1.7-1.5-2.8-1.5ZM77.9,57.9h-43.2l-6.8-32.4h61.4l-11.3,32.4Z"/>
  <path class="cls-2" d="M31.4,99.7c2.3,0,4.1-1.9,4.1-4.1s-1.9-4.1-4.1-4.1-4.1,1.9-4.1,4.1,1.9,4.1,4.1,4.1Z"/>
  <path class="cls-2" d="M72.8,95.5c0,2.3-1.9,4.1-4.1,4.1s-4.1-1.9-4.1-4.1,1.9-4.1,4.1-4.1,4.1,1.9,4.1,4.1Z"/>
</svg>