<svg viewBox="0 0 100 100" fill="currentColor" xmlns="http://www.w3.org/2000/svg">
<path d="M92.0609 12H44.0429C41.3324 12 39.1399 14.1976 39.1399 16.9144V36.1493H7.90296C5.19247 36.1493 2.99998 38.3468 2.99998 41.0636V73.5082C2.99998 76.2129 5.19247 78.4226 7.90296 78.4226H10.1557C11.529 78.4226 12.6493 79.5455 12.6493 80.922V86.0658C12.6493 87.2854 13.3842 88.3479 14.5166 88.7947C14.8659 88.9275 15.2153 89 15.5767 89C16.3838 89 17.1548 88.6619 17.721 88.0461L25.6959 79.2557C26.1657 78.7365 26.8403 78.4347 27.539 78.4347H55.945C58.6434 78.4347 60.848 76.2371 60.848 73.5203V54.2612H72.461C73.1597 54.2612 73.8343 54.5631 74.3041 55.0823L82.279 63.8726C82.8452 64.5005 83.6282 64.8265 84.4233 64.8265C84.7726 64.8265 85.134 64.7662 85.4834 64.6213C86.6158 64.1866 87.3506 63.1119 87.3506 61.8924V56.7486C87.3506 55.3721 88.4709 54.2492 89.8443 54.2492H92.097C94.7954 54.2492 97 52.0516 97 49.3348V16.9144C96.9638 14.1976 94.7714 12 92.0609 12ZM58.4146 73.4961C58.4146 74.8726 57.2942 75.9956 55.9209 75.9956H27.527C26.1536 75.9956 24.8285 76.5872 23.9009 77.6015L15.926 86.3919C15.7212 86.6092 15.4924 86.573 15.3719 86.5247C15.2514 86.4764 15.0466 86.3556 15.0466 86.0538V80.91C15.0466 78.2052 12.8541 75.9956 10.1436 75.9956H7.89092C6.52964 75.9956 5.40931 74.8726 5.40931 73.4961V41.0636C5.40931 39.6871 6.52964 38.5642 7.90296 38.5642H39.1399V49.3468C39.1399 52.0516 41.3324 54.2612 44.0429 54.2612H58.4146V73.4961ZM94.5545 49.3468C94.5545 50.7234 93.4342 51.8463 92.0609 51.8463H89.8081C87.1097 51.8463 84.9172 54.0439 84.9172 56.7607V61.9045C84.9172 62.2063 84.7124 62.3271 84.5919 62.3754C84.4715 62.4237 84.2426 62.472 84.0378 62.2426L76.0629 53.4522C75.1353 52.438 73.8222 51.8463 72.4369 51.8463H44.0429C42.6696 51.8463 41.5493 50.7234 41.5493 49.3468V16.9144C41.5493 15.5378 42.6696 14.4149 44.0429 14.4149H92.0729C93.4462 14.4149 94.5666 15.5378 94.5666 16.9144V49.3468H94.5545Z" />
<path d="M53.5959 27.697H65.6425C66.3051 27.697 66.8472 27.1537 66.8472 26.4895C66.8472 25.8254 66.3051 25.2821 65.6425 25.2821H53.5959C52.9333 25.2821 52.3912 25.8254 52.3912 26.4895C52.3912 27.1537 52.9333 27.697 53.5959 27.697Z" />
<path d="M82.5079 38.5642H53.5959C52.9333 38.5642 52.3912 39.1076 52.3912 39.7717C52.3912 40.4358 52.9333 40.9791 53.5959 40.9791H82.5079C83.1704 40.9791 83.7125 40.4358 83.7125 39.7717C83.7125 39.1076 83.1704 38.5642 82.5079 38.5642Z" />
<path d="M17.456 51.8463H29.5026C30.1652 51.8463 30.7073 51.3029 30.7073 50.6388C30.7073 49.9747 30.1652 49.4314 29.5026 49.4314H17.456C16.7934 49.4314 16.2513 49.9747 16.2513 50.6388C16.2513 51.3029 16.7934 51.8463 17.456 51.8463Z" />
<path d="M16.2513 63.9209C16.2513 64.585 16.7934 65.1284 17.456 65.1284H46.3679C47.0305 65.1284 47.5726 64.585 47.5726 63.9209C47.5726 63.2568 47.0305 62.7135 46.3679 62.7135H17.456C16.7934 62.7135 16.2513 63.2568 16.2513 63.9209Z" />
<path fill-rule="evenodd" clip-rule="evenodd" d="M37.7399 16.9144C37.7399 13.4274 40.5562 10.6 44.0429 10.6H92.0609C95.5511 10.6 98.3537 13.4269 98.3999 16.8957L98.4 16.905V49.3348C98.4 52.8239 95.5695 55.6492 92.097 55.6492H89.8443C89.2472 55.6492 88.7506 56.1422 88.7506 56.7486V61.8924C88.7506 63.6806 87.6705 65.2733 86.0022 65.9217C85.4683 66.1402 84.9279 66.2265 84.4233 66.2265C83.2454 66.2265 82.0807 65.7425 81.2406 64.8116L81.2393 64.8102L73.2672 56.023L73.266 56.0216C73.059 55.7929 72.7603 55.6612 72.461 55.6612H62.248V73.5203C62.248 77.0095 59.4175 79.8347 55.945 79.8347H27.539C27.2397 79.8347 26.941 79.9663 26.734 80.1951L18.7579 88.9868L18.7516 88.9937C17.9251 89.8925 16.7826 90.4 15.5767 90.4C15.0217 90.4 14.5037 90.2876 14.019 90.1033L14.0109 90.1002L14.0028 90.097C12.344 89.4426 11.2493 87.8692 11.2493 86.0658V80.922C11.2493 80.3157 10.7527 79.8226 10.1557 79.8226H7.90296C4.41397 79.8226 1.59998 76.9808 1.59998 73.5082V41.0636C1.59998 37.5767 4.4162 34.7493 7.90296 34.7493H37.7399V16.9144ZM93.1666 47.9468V16.9144C93.1666 16.308 92.67 15.8149 92.0729 15.8149H44.0429C43.4459 15.8149 42.9493 16.308 42.9493 16.9144V49.3469C42.9493 49.9532 43.4459 50.4463 44.0429 50.4463H72.4369C74.2226 50.4463 75.9082 51.2086 77.096 52.5074L77.0998 52.5115L83.5172 59.5852V56.7607C83.5172 53.276 86.3312 50.4463 89.8081 50.4463H92.0609C92.6579 50.4463 93.1545 49.9532 93.1545 49.3469V47.9468H93.1666ZM85.0822 61.3103L85.0747 61.3019C85.0772 61.3047 85.0797 61.3075 85.0822 61.3103ZM50.9912 26.4895C50.9912 25.0553 52.1571 23.8821 53.5959 23.8821H65.6425C67.0814 23.8821 68.2472 25.0553 68.2472 26.4895C68.2472 27.9238 67.0814 29.097 65.6425 29.097H53.5959C52.1571 29.097 50.9912 27.9238 50.9912 26.4895ZM7.90296 39.9642C7.3059 39.9642 6.80931 40.4573 6.80931 41.0636V73.4961C6.80931 74.1069 7.3103 74.5956 7.89092 74.5956H10.1436C13.6326 74.5956 16.4466 77.4374 16.4466 80.91V83.7344L22.864 76.6608L22.8678 76.6567C24.0568 75.3565 25.7551 74.5956 27.527 74.5956H55.9209C56.518 74.5956 57.0146 74.1025 57.0146 73.4961V55.6612H44.0429C40.5539 55.6612 37.7399 52.8195 37.7399 49.3469V39.9642H7.90296ZM50.9912 39.7717C50.9912 38.3374 52.1571 37.1642 53.5959 37.1642H82.5079C83.9467 37.1642 85.1125 38.3374 85.1125 39.7717C85.1125 41.2059 83.9467 42.3791 82.5079 42.3791H53.5959C52.1571 42.3791 50.9912 41.2059 50.9912 39.7717ZM14.8513 50.6388C14.8513 49.2046 16.0171 48.0314 17.456 48.0314H29.5026C30.9414 48.0314 32.1073 49.2046 32.1073 50.6388C32.1073 52.0731 30.9414 53.2463 29.5026 53.2463H17.456C16.0171 53.2463 14.8513 52.0731 14.8513 50.6388ZM14.8513 63.9209C14.8513 62.4867 16.0171 61.3135 17.456 61.3135H46.3679C47.8067 61.3135 48.9726 62.4867 48.9726 63.9209C48.9726 65.3552 47.8067 66.5284 46.3679 66.5284H17.456C16.0171 66.5284 14.8513 65.3552 14.8513 63.9209Z" />
</svg>
