<svg viewBox="0 0 100 100" fill="currentColor" xmlns="http://www.w3.org/2000/svg">
<path d="M4.62963 78.6531H15.5185V91.3673C15.5185 92.8022 16.3533 94.11 17.6781 94.6912C18.15 94.891 18.64 95 19.1481 95C20.0193 95 20.8904 94.6731 21.58 94.0737L38.6937 78.6531H95.3704C97.3667 78.6531 99 77.0184 99 75.0204V9.63265C99 7.63469 97.3667 6 95.3704 6H4.62963C2.63333 6 1 7.63469 1 9.63265V75.0204C1 77.0184 2.63333 78.6531 4.62963 78.6531ZM8.25926 13.2653H91.7407V71.3878H37.2963C36.407 71.3878 35.5359 71.7147 34.8644 72.3141L22.7778 83.212V75.0204C22.7778 73.0224 21.1444 71.3878 19.1481 71.3878H8.25926V13.2653Z" fill="currentColor"/>
<path d="M23.295 32.4132C21.1312 32.4132 19.375 30.6552 19.375 28.489C19.375 26.3228 21.1312 24.5647 23.295 24.5647H74.255C76.4188 24.5647 78.175 26.3228 78.175 28.489C78.175 30.6552 76.4188 32.4132 74.255 32.4132H23.295Z" fill="currentColor"/>
<path d="M23.295 44.186H44.855C47.0188 44.186 48.775 45.944 48.775 48.1102C48.775 50.2764 47.0188 52.0345 44.855 52.0345H23.295C21.1312 52.0345 19.375 50.2764 19.375 48.1102C19.375 45.944 21.1312 44.186 23.295 44.186Z" fill="currentColor"/>
</svg>
