<svg viewBox="0 0 100 100" fill="currentColor" xmlns="http://www.w3.org/2000/svg">
  <path d="M30.462 49.828L4.91999 24.286C1.04999 20.416 1.04999 14.224 4.91999 10.354C8.78999 6.48401 14.982 6.48401 18.852 10.354L51.36 42.862C55.23 46.732 55.23 52.924 51.36 56.794L18.852 89.302C14.982 93.172 8.78999 93.172 4.91999 89.302C1.04999 85.432 1.04999 79.24 4.91999 75.37L30.462 49.828Z"/>
  <path d="M75.462 49.828L49.92 24.286C46.05 20.416 46.05 14.224 49.92 10.354C53.79 6.48401 59.982 6.48401 63.852 10.354L96.36 42.862C100.23 46.732 100.23 52.924 96.36 56.794L63.852 89.302C59.982 93.172 53.79 93.172 49.92 89.302C46.05 85.432 46.05 79.24 49.92 75.37L75.462 49.828Z"/>
</svg>
