<svg viewBox="0 0 100 50" fill="none" xmlns="http://www.w3.org/2000/svg">
<path d="M94.9997 15V35H5V15H94.9997Z" fill="#FFCC00"/>
<path d="M20.8274 18.5915L17.9519 22.5253H33.6233C34.4154 22.5253 34.405 22.8284 34.0178 23.3566C33.6245 23.8927 32.9665 24.8252 32.566 25.3698C32.3628 25.6462 31.9953 26.1498 33.2131 26.1498H39.6216C39.6216 26.1498 40.6546 24.7344 41.5203 23.551C42.6984 21.9414 41.6225 18.5917 37.4114 18.5917L20.8274 18.5915Z" fill="#D2002E"/>
<path d="M16.7885 31.4073L22.5639 23.5051H29.7309C30.523 23.5051 30.5127 23.8082 30.1255 24.3363C29.7323 24.8725 29.0635 25.7951 28.663 26.3397C28.4596 26.6161 28.0923 27.1204 29.3099 27.1204H38.9114C38.1129 28.222 35.5227 31.4072 30.8718 31.4072L16.7885 31.4073ZM49.8648 27.1195L46.7328 31.407H38.4712C38.4712 31.407 41.6014 27.1204 41.6041 27.1204L49.8648 27.1195ZM62.5213 26.1498H42.3139L47.8398 18.5915H56.0991L52.9317 22.9254H56.6184L59.787 18.5915H68.0453L62.5213 26.1498ZM61.812 27.1206L58.6786 31.4073H50.42C50.42 31.4073 53.5502 27.1206 53.5529 27.1206H61.812ZM5 28.8109H17.171L16.5062 29.7216H5V28.8109ZM5 27.1206H18.4076L17.7414 28.03H5V27.1206ZM5 30.5022H15.9352L15.2735 31.4073H5V30.5022ZM95 29.7216H82.8758L83.5413 28.8111H95V29.7216ZM95 31.4073L81.6432 31.4086L82.3049 30.5022H95V31.4073ZM84.7762 27.1206H95V28.0305L84.1113 28.0313L84.7762 27.1206ZM79.4835 18.5915L73.9585 26.1496H65.2067C65.2067 26.1496 70.7331 18.5915 70.736 18.5915H79.4835ZM64.4986 27.1206C64.4986 27.1206 63.8948 27.9514 63.6018 28.3507C62.5643 29.7626 63.4814 31.4073 66.8668 31.4073H80.1308L83.2639 27.1206H64.4986Z" fill="#D2002E"/>
</svg>
