<svg viewBox="0 0 100 100" fill="currentColor" xmlns="http://www.w3.org/2000/svg">
<path d="M83.033 11.5595C81.1167 9.6294 78.5683 8.56641 75.8569 8.56641H71.2769V7.63867C71.2769 5.08091 69.2065 3 66.6615 3H33.4308C30.8858 3 28.8154 5.08091 28.8154 7.63867V8.56641H24.219C18.6324 8.56641 14.0822 13.1394 14.0759 18.7602L14 87.7836C13.9971 90.5115 15.0507 93.0769 16.9668 95.0069C18.8831 96.937 21.4317 98 24.1431 98H75.7808C81.3676 98 85.9178 93.427 85.9239 87.8062L86 18.7828C86.0031 16.0547 84.9493 13.4893 83.033 11.5595ZM34.3539 8.56641H65.7385V14.1328H34.3539V8.56641ZM80.3914 87.7999C80.3884 90.3551 78.3202 92.4336 75.7808 92.4336H24.1431C22.9107 92.4336 21.7522 91.9504 20.8812 91.0732C20.0102 90.1957 19.5313 89.0297 19.5326 87.7899L19.6084 18.7665C19.6112 16.2113 21.6795 14.1328 24.219 14.1328H28.8154V15.0605C28.8154 17.6183 30.8858 19.6992 33.4308 19.6992H66.6615C69.2065 19.6992 71.2769 17.6183 71.2769 15.0605V14.1328H75.8569C77.0894 14.1328 78.2478 14.616 79.1188 15.4932C79.9898 16.3705 80.4689 17.5367 80.4674 18.7765L80.3914 87.7999Z" />
<path d="M50.9414 40.1094H70.616C72.1454 40.1094 73.3852 38.8632 73.3852 37.3262C73.3852 35.7891 72.1454 34.543 70.616 34.543H50.9414C49.412 34.543 48.1721 35.7891 48.1721 37.3262C48.1721 38.8632 49.412 40.1094 50.9414 40.1094Z" />
<path d="M50.9414 58.6641H70.616C72.1454 58.6641 73.3852 57.4179 73.3852 55.8809C73.3852 54.3438 72.1454 53.0977 70.616 53.0977H50.9414C49.412 53.0977 48.1721 54.3438 48.1721 55.8809C48.1721 57.4179 49.412 58.6641 50.9414 58.6641Z" />
<path d="M70.6952 71.6523H50.9414C49.412 71.6523 48.1721 72.8985 48.1721 74.4355C48.1721 75.9726 49.412 77.2188 50.9414 77.2188H70.6952C72.2246 77.2188 73.4644 75.9726 73.4644 74.4355C73.4644 72.8985 72.2247 71.6523 70.6952 71.6523Z" />
<path d="M39.155 29.7479L32.7687 36.1663L31.263 34.6528C30.1815 33.5659 28.4283 33.5659 27.3468 34.6528C26.2653 35.7396 26.2653 37.5019 27.3468 38.5888L30.8107 42.0704C31.33 42.5924 32.0343 42.8857 32.7689 42.8857C33.5033 42.8857 34.2076 42.5926 34.727 42.0704L43.0714 33.6841C44.1529 32.5973 44.1529 30.835 43.0714 29.7481C41.9899 28.6609 40.2366 28.6609 39.155 29.7479Z" />
<path d="M39.155 49.7196L32.7687 56.138L31.263 54.6247C30.1815 53.5378 28.4283 53.5378 27.3468 54.6247C26.2653 55.7115 26.2653 57.4736 27.3468 58.5607L30.8107 62.0423C31.33 62.5643 32.0343 62.8576 32.7689 62.8576C33.5033 62.8576 34.2078 62.5644 34.727 62.0423L43.0714 53.6558C44.1529 52.569 44.1529 50.8067 43.0714 49.7198C41.9899 48.6328 40.2364 48.6328 39.155 49.7196Z"/>
<path d="M39.155 68.2743L32.7687 74.6927L31.263 73.1794C30.1815 72.0925 28.4283 72.0925 27.3468 73.1794C26.2653 74.2661 26.2653 76.0283 27.3468 77.1154L30.8107 80.597C31.33 81.1189 32.0343 81.4123 32.7689 81.4123C33.5033 81.4123 34.2078 81.1191 34.727 80.597L43.0714 72.2105C44.1529 71.1237 44.1529 69.3614 43.0714 68.2745C41.9899 67.1875 40.2364 67.1875 39.155 68.2743Z" />
</svg>
