<svg viewBox="0 0 100 100" fill="currentColor" xmlns="http://www.w3.org/2000/svg">
<path d="M86.2591 23.1106L68.0757 4.76669C67.6764 4.3638 65.2381 2 64.04 2C62.3692 2 20.36 2 20.36 2C15.198 2 11 6.23502 11 11.4426V88.5574C11 93.765 15.198 98 20.36 98H79.64C84.802 98 89 93.765 89 88.5574V29.7881C89 29.2184 89 27.5045 89 27.1803C89 25.6066 86.6584 23.5134 86.2591 23.1106ZM67.16 12.7457L78.3499 24.0328H70.28C68.5593 24.0328 67.16 22.6211 67.16 20.8852V12.7457ZM82.76 88.5574C82.76 90.2932 81.3607 91.7049 79.64 91.7049H20.36C18.6393 91.7049 17.24 90.2932 17.24 88.5574V11.4426C17.24 9.70675 18.6393 8.29508 20.36 8.29508H60.92V20.8852C60.92 26.0929 65.118 30.3279 70.28 30.3279H82.76V88.5574Z" fill="currentColor"/>
<path d="M29.6092 41.3443C27.887 41.3443 26.4892 42.7544 26.4892 44.4918C26.4892 46.2292 27.887 47.6393 29.6092 47.6393H49.8892H70.1692C71.8915 47.6393 73.2892 46.2292 73.2892 44.4918C73.2892 42.7544 71.8915 41.3443 70.1692 41.3443H29.6092Z" fill="currentColor"/>
<path d="M29.6092 31.9016H46.7692C48.4915 31.9016 49.8892 30.4915 49.8892 28.7541C49.8892 27.0167 48.4915 25.6066 46.7692 25.6066H29.6092C27.887 25.6066 26.4892 27.0167 26.4892 28.7541C26.4892 30.4915 27.887 31.9016 29.6092 31.9016Z" fill="currentColor"/>
<path d="M70.1692 58.6557H29.6092C27.887 58.6557 26.4892 60.0658 26.4892 61.8033C26.4892 63.5407 27.887 64.9508 29.6092 64.9508H70.1692C71.8915 64.9508 73.2892 63.5407 73.2892 61.8033C73.2892 60.0658 71.8915 58.6557 70.1692 58.6557Z" fill="currentColor"/>
</svg>
