<?xml version="1.0" encoding="UTF-8"?>
<svg xmlns="http://www.w3.org/2000/svg" version="1.1" fill="currentColor" viewBox="0 0 100 100">
  <path class="cls-1" d="M48,70.8c.5.6,1.3.8,2,.8s1.4-.3,2-.8l21.3-21.9c1.1-1.1,1.1-3,0-4.1-1.1-1.1-2.9-1.1-4,0l-16.5,17V12.6c0-1.6-1.3-2.9-2.8-2.9s-2.8,1.3-2.8,2.9v49.2l-16.5-17c-1.1-1.1-2.9-1.1-4,0-1.1,1.1-1.1,3,0,4.1l21.3,21.9Z"/>
  <path class="cls-1" d="M12.3,90.3h75.4c4.6,0,8.4-3.9,8.4-8.6v-28.8c0-1.6-1.3-2.9-2.8-2.9s-2.8,1.3-2.8,2.9v28.8c0,1.6-1.3,2.9-2.8,2.9H12.3c-1.5,0-2.8-1.3-2.8-2.9v-28.8c0-1.6-1.3-2.9-2.8-2.9s-2.8,1.3-2.8,2.9v28.8c0,4.8,3.8,8.6,8.4,8.6Z"/>
  <path class="cls-1" d="M50,73.5c-1.3,0-2.5-.5-3.3-1.4l-21.3-21.9c-1.8-1.9-1.8-4.9,0-6.7,1.8-1.8,4.9-1.8,6.7,0l13.2,13.6V12.6c0-2.6,2.1-4.8,4.7-4.8s4.7,2.2,4.7,4.8v44.5l13.2-13.6c1.8-1.8,4.9-1.8,6.7,0,1.8,1.9,1.8,4.9,0,6.7l-21.3,21.9c-.9.9-2.1,1.4-3.3,1.4ZM28.7,45.8c-.1,0-.4,0-.6.3-.4.4-.4,1,0,1.4l21.3,21.9c.3.3.8.3,1.2,0l21.3-21.9c.4-.4.4-1,0-1.4-.4-.5-.8-.4-1.2,0l-19.8,20.4V12.6c0-1-1.7-1-1.7,0v53.9l-19.8-20.4c-.2-.2-.5-.3-.6-.3Z"/>
  <path class="cls-1" d="M87.7,92.2H12.3c-5.7,0-10.3-4.7-10.3-10.6v-28.8c0-2.6,2.1-4.8,4.7-4.8s4.7,2.2,4.7,4.8v28.8c0,.5.4,1,.9,1h75.4c.5,0,.9-.4.9-1v-28.8c0-2.6,2.1-4.8,4.7-4.8s4.7,2.2,4.7,4.8v28.8c0,5.8-4.6,10.6-10.3,10.6ZM6.7,51.9c-.5,0-.9.4-.9,1v28.8c0,3.7,2.9,6.7,6.5,6.7h75.4c3.6,0,6.5-3,6.5-6.7v-28.8c0-1-1.7-1-1.7,0v28.8c0,2.6-2.1,4.8-4.7,4.8H12.3c-2.6,0-4.7-2.2-4.7-4.8v-28.8c0-.5-.4-1-.9-1Z"/>
</svg>