<svg viewBox="0 0 100 50" fill="currentColor" xmlns="http://www.w3.org/2000/svg">
<path d="M38.6573 22.2154C37.8975 25.5137 35.0077 27.9678 31.5501 27.9678C27.5173 27.9678 24.2443 24.6176 24.2443 20.4848C24.2443 16.3496 27.5173 13 31.5501 13C34.3832 13 36.8397 14.6507 38.0536 17.0644C38.2813 17.5723 38.4303 18.1535 38.4303 18.8708C38.4303 21.5177 36.0018 22.6495 34.9583 22.6495C34.7312 22.6495 34.646 22.5219 34.646 22.329C34.646 22.1361 34.7312 21.8382 34.795 21.6025L35.938 16.4179H34.1913L33.9428 17.4417C33.3534 16.5449 32.5226 16.0743 31.5215 16.0743C29.1502 16.0743 27.2336 18.4001 27.2336 21.2198C27.2336 23.2905 28.7312 24.7421 30.4636 24.7421C31.3159 24.7421 32.0471 24.2293 32.5656 23.6305C32.6293 24.3795 33.1478 24.7421 33.73 24.7421C34.6597 24.7421 37.1448 24.0279 38.6573 22.2154ZM33.2759 19.8756C33.2759 21.2198 32.2956 22.6495 30.9607 22.6495C29.9809 22.6495 29.3993 21.9035 29.3993 20.8993C29.3993 19.6173 30.3576 18.1681 31.7348 18.1681C32.6722 18.1681 33.2759 18.8708 33.2759 19.8756ZM43.3927 35.2627L42.9029 37.6734C42.1931 37.8608 41.1919 38 40.3611 38C36.8677 38 34.8659 35.8835 34.8659 32.8288C34.8659 29.1386 37.6347 25.6529 41.7032 25.6529C43.5066 25.6529 44.6216 25.8739 45.267 26.0924L44.8272 28.2254C43.9607 27.9311 43.0453 27.8481 42.1502 27.8481C39.2467 27.8481 37.848 30.8094 37.848 32.9082C37.848 34.8824 39.0763 35.8048 40.8087 35.8048C41.7813 35.8048 42.6615 35.6088 43.3927 35.2627ZM53.5667 16.2812H56.5352L51.2241 25.6645L50.9261 26.1694C50.1025 27.6326 49.1865 28.6026 47.3975 28.6026C46.7014 28.6026 46.1621 28.5178 45.7217 28.4042L46.1549 26.2768C46.4178 26.3507 46.7157 26.4074 47.0709 26.4074C47.8659 26.4074 48.292 25.8232 48.7038 25.04L49.0018 24.5352L47.2199 16.2812H50.0602L50.7914 21.5146L53.5667 16.2812ZM74.9529 29.522H76.5501L76.9404 27.7401L79.8868 26.9294L79.3254 29.522H81.2574L80.9088 31.5273H78.879L78.3957 33.833C78.2747 34.4514 78.1615 34.8659 78.1615 35.2627C78.1615 35.8213 78.5238 36.1876 79.0775 36.1876C79.3754 36.1876 79.6877 36.06 79.9791 35.9483L79.6669 37.8413C79.0775 37.9341 78.4881 38 77.9344 38C76.5 38 75.3713 37.2852 75.3713 35.5496C75.3713 35.1376 75.4279 34.7237 75.6198 33.8477L76.1025 31.5273H74.6114L74.9529 29.522ZM72.0912 26.0699H74.9166L74.4833 28.1686H71.6573L72.0912 26.0699ZM71.3737 29.522H74.1996L72.5238 37.8095H69.6984L71.3737 29.522ZM65.9636 37.8095L66.1841 36.4879C65.4386 37.4097 64.7712 38 63.2157 38C61.4768 38 60.2062 36.4403 60.2062 34.579C60.2062 31.8588 61.5405 29.3315 64.3021 29.3315C65.7151 29.3315 66.6949 29.967 67.1138 30.8577L68.1222 25.88H70.8695L68.6973 36.5673C68.6055 37.0611 68.5548 37.475 68.5268 37.8095H65.9636ZM64.4303 35.8048C65.7509 35.8048 66.5387 34.3098 66.5387 33.2116C66.5387 32.3844 66.1341 31.5273 65.2038 31.5273C63.8832 31.5273 63.0954 32.8148 63.0954 34.1022C63.0954 35.1211 63.5423 35.8048 64.4303 35.8048ZM58.36 35.5179L58.0048 37.5373C57.025 37.8413 55.9815 38 55.1788 38C52.4738 38 51.0185 36.298 51.0185 34.2133C51.0185 32.2898 52.261 29.3315 55.8605 29.3315C57.9905 29.3315 59.5882 30.4291 59.5882 32.9424C59.5882 33.2745 59.4958 34.0058 59.382 34.4996H53.6526C53.6883 35.3903 54.121 36.0911 55.8319 36.0911C56.5775 36.0911 57.5858 35.9006 58.36 35.5179ZM53.8302 32.8771H57.2592C57.2592 31.987 56.9178 31.2404 55.8886 31.2404C54.6818 31.2404 54.0286 32.0835 53.8302 32.8771ZM47.9797 29.522L47.6675 31.2239C48.1502 30.2533 49.0518 29.3315 50.202 29.3315C50.5709 29.3315 51.0113 29.3798 51.3802 29.5385L50.7485 32.0658C50.3868 31.7794 49.9815 31.7172 49.4565 31.7172C48.2777 31.7172 47.5751 32.7666 47.376 33.9917L46.581 37.8095H43.7908L45.4946 29.522H47.9797ZM39.4952 22.3717C40.2122 22.6916 40.9863 22.8503 41.7598 22.8503C42.2145 22.8503 43.329 22.8027 43.329 22.119C43.329 20.9414 39.9923 21.5458 39.9923 18.8091C39.9923 16.8685 42.2002 16.0889 44.0745 16.0889C44.7777 16.0889 45.7574 16.2501 46.7652 16.5822L46.1758 18.4599C45.4589 18.1565 44.7777 17.9978 43.9398 17.9978C43.3147 17.9978 42.6335 18.1425 42.6335 18.7151C42.6335 19.6369 46.1263 19.5746 46.1263 21.6569C46.1263 23.7074 44.4368 24.7256 42.3349 24.7592C41.1138 24.7739 39.8075 24.5834 38.9344 24.3282L39.4952 22.3717ZM22.3415 22.2777L21.9863 24.2971C21.0072 24.6005 19.9702 24.7592 19.1609 24.7592C16.4631 24.7592 15 23.0579 15 20.9732C15 19.0502 16.2426 16.0889 19.8421 16.0889C21.9726 16.0889 23.5697 17.1865 23.5697 19.6991C23.5697 20.0343 23.4779 20.7656 23.3713 21.2595H17.6412C17.6698 22.1501 18.1031 22.8503 19.8141 22.8503C20.5596 22.8503 21.5673 22.6574 22.3415 22.2777ZM17.8117 19.6369H21.2414C21.2414 18.7462 20.9005 17.9978 19.8778 17.9978C18.6639 17.9978 18.0107 18.8433 17.8117 19.6369ZM83.1877 24.8532H84.1037C84.6508 24.8532 84.9207 25.0773 84.9207 25.5394C84.9207 25.9313 84.6794 26.2145 84.3027 26.2145L84.9774 27.2926H84.5727L83.9052 26.2145H83.5787V27.2926H83.1877V24.8532ZM83.5787 25.9026H84.0399C84.3385 25.9026 84.5298 25.8403 84.5298 25.5229C84.5298 25.2445 84.2884 25.1652 84.0399 25.1652H83.5787V25.9026ZM83.9696 23.9937C85.0912 23.9937 86 24.9265 86 26.0754C86 27.2242 85.0912 28.1576 83.9696 28.1576C82.8474 28.1576 81.9315 27.2242 81.9315 26.0754C81.9315 24.9265 82.8474 23.9937 83.9696 23.9937ZM83.9696 27.8457C84.9064 27.8457 85.6091 27.0741 85.6091 26.0754C85.6091 25.0773 84.9064 24.3056 83.9696 24.3056C83.025 24.3056 82.3218 25.0773 82.3218 26.0754C82.3218 27.0741 83.025 27.8457 83.9696 27.8457Z" />
</svg>
