<svg viewBox="0 0 100 100" fill="currentColor" xmlns="http://www.w3.org/2000/svg">
<path d="M15.798 0.999996L65.351 0.999996L65.351 31.3336H60.632L60.632 5.66639L15.798 5.66639C11.9042 5.66639 8.71903 8.81689 8.71903 12.6664L8.71903 87.3336C8.71903 91.1831 11.9042 94.3336 15.798 94.3336L60.632 94.3336L60.632 68.6664H65.351V99L15.798 99C9.27899 99 3.99999 93.7791 3.99999 87.3336L3.99999 12.6664C3.99999 6.22094 9.27899 0.999996 15.798 0.999996Z" />
<path d="M77.4144 30.6329L97 50L77.4144 69.3671L74.0814 66.0704L90.3341 50L74.0814 33.9296L77.4144 30.6329Z" />
<path d="M93.667 52.3336L32.316 52.3336V47.6664L93.667 47.6664V52.3336Z" />
<path d="M15.798 0.999996L65.351 0.999996L65.351 31.3336H60.632L60.632 5.66639L15.798 5.66639C11.9042 5.66639 8.71903 8.81689 8.71903 12.6664L8.71903 87.3336C8.71903 91.1831 11.9042 94.3336 15.798 94.3336L60.632 94.3336L60.632 68.6664H65.351V99L15.798 99C9.27899 99 3.99999 93.7791 3.99999 87.3336L3.99999 12.6664C3.99999 6.22094 9.27899 0.999996 15.798 0.999996Z" />
<path d="M77.4144 30.6329L97 50L77.4144 69.3671L74.0814 66.0704L90.3341 50L74.0814 33.9296L77.4144 30.6329Z" />
<path d="M93.667 52.3336L32.316 52.3336V47.6664L93.667 47.6664V52.3336Z" />
</svg>
