<?xml version="1.0" encoding="UTF-8"?>
<svg xmlns="http://www.w3.org/2000/svg" version="1.1" fill="currentColor" viewBox="0 0 100 100">
  <path d="M93.84,46.79h-44.68c-.43,0-.84.08-1.23.23-1.42-5.66-6.75-9.91-13.1-9.91s-11.59,4.16-13.08,9.76c-.21-.04-.45-.08-.7-.08H6.16c-1.85,0-3.38,1.44-3.38,3.22s1.52,3.22,3.38,3.22h14.89c.23,0,.47-.04.7-.08,1.48,5.6,6.75,9.76,13.08,9.76s11.69-4.25,13.1-9.91c.39.14.8.23,1.23.23h44.68c1.85,0,3.38-1.44,3.38-3.22s-1.52-3.22-3.38-3.22ZM34.82,56.47c-3.73,0-6.75-2.89-6.75-6.46s3.03-6.46,6.75-6.46,6.75,2.89,6.75,6.46-3.03,6.46-6.75,6.46Z"/>
  <path d="M93.84,77.45h-17.7c-.43,0-.84.08-1.23.23-1.42-5.66-6.75-9.91-13.1-9.91s-11.61,4.18-13.08,9.8c-.27-.06-.55-.12-.84-.12H6.16c-1.85,0-3.38,1.44-3.38,3.22s1.52,3.22,3.38,3.22h41.73c.29,0,.57-.04.84-.12,1.44,5.62,6.75,9.8,13.08,9.8s11.69-4.24,13.1-9.91c.39.14.8.23,1.23.23h17.7c1.85,0,3.38-1.44,3.38-3.22s-1.52-3.22-3.38-3.22ZM61.81,87.13c-3.73,0-6.75-2.89-6.75-6.46s3.03-6.46,6.75-6.46,6.75,2.89,6.75,6.46-3.03,6.46-6.75,6.46Z"/>
  <path d="M93.84,16.11h-17.29c-1.5-5.54-6.77-9.68-13.06-9.68s-11.57,4.16-13.06,9.74c-.16-.04-.29-.04-.43-.04H6.16c-1.85,0-3.38,1.44-3.38,3.22s1.52,3.22,3.38,3.22h43.84c.16,0,.29,0,.43-.04,1.48,5.58,6.75,9.74,13.06,9.74s11.55-4.14,13.06-9.68h17.29c1.85,0,3.38-1.44,3.38-3.22s-1.52-3.22-3.38-3.22v-.04ZM63.49,25.79c-3.73,0-6.75-2.89-6.75-6.46s3.03-6.46,6.75-6.46,6.75,2.89,6.75,6.46-3.03,6.46-6.75,6.46Z"/>
</svg>