<svg viewBox="0 0 100 100" fill="currentColor" xmlns="http://www.w3.org/2000/svg">
<path d="M94 20.5441C94 18.975 92.7625 17.6912 91.25 17.6912H66.5V4.85294C66.5 3.28382 65.2625 2 63.75 2H36.25C34.7375 2 33.5 3.28382 33.5 4.85294V17.6912H8.75C7.2375 17.6912 6 18.975 6 20.5441C6 22.1132 7.2375 23.3971 8.75 23.3971H17.385C17.1513 23.825 17 24.2957 17 24.8235V89.8421C17 94.8918 20.96 99 25.8275 99H74.1862C79.0537 99 83.0138 94.8918 83.0138 89.8421V24.8235C83.0138 24.2957 82.8625 23.825 82.6288 23.3971H91.25C92.7625 23.3971 94 22.1132 94 20.5441ZM39 7.70588H61V17.6912H39V7.70588ZM77.5 24.8235V89.8421C77.5 91.7393 76.015 93.2941 74.1725 93.2941H25.8275C23.985 93.2941 22.5 91.7535 22.5 89.8421V24.8235C22.5 24.2957 22.3487 23.825 22.115 23.3971H77.8712C77.6512 23.825 77.5 24.2957 77.5 24.8235Z" />
<path d="M50 80.4559C51.5125 80.4559 52.75 79.1721 52.75 77.6029V37.6618C52.75 36.0926 51.5125 34.8088 50 34.8088C48.4875 34.8088 47.25 36.0926 47.25 37.6618V77.6029C47.25 79.1721 48.4875 80.4559 50 80.4559Z" />
<path d="M36.25 80.4559C37.7625 80.4559 39 79.1721 39 77.6029V37.6618C39 36.0926 37.7625 34.8088 36.25 34.8088C34.7375 34.8088 33.5 36.0926 33.5 37.6618V77.6029C33.5 79.1721 34.7375 80.4559 36.25 80.4559Z" />
<path d="M63.75 80.4559C65.2625 80.4559 66.5 79.1721 66.5 77.6029V37.6618C66.5 36.0926 65.2625 34.8088 63.75 34.8088C62.2375 34.8088 61 36.0926 61 37.6618V77.6029C61 79.1721 62.2375 80.4559 63.75 80.4559Z" />
</svg>
