<?xml version="1.0" encoding="UTF-8"?>
<svg xmlns="http://www.w3.org/2000/svg" version="1.1" fill="currentColor" viewBox="0 0 100 100">
  <path class="cls-1" d="M18.3,60.2l29.1,29.7c.6.6,1.3.9,2.1.9.2,0,.3,0,.5,0,.1,0,.3,0,.4,0h0c.8,0,1.6-.3,2.1-.9l29.1-29.7,10.8-10.7c9.3-9.2,9.3-24.3,0-33.5-4.5-4.5-10.5-6.9-16.9-6.9s-12.4,2.5-16.9,6.9l-8.7,8.6-8.6-8.6c-4.5-4.5-10.5-6.9-16.9-6.9s-12.4,2.5-16.9,6.9C-1.7,25.3-1.7,40.4,7.6,49.6l10.7,10.6ZM11.8,20.3c3.5-3.5,8.1-5.2,12.6-5.2s9.2,1.7,12.6,5.2l10.8,10.7c1.2,1.2,3.1,1.2,4.3,0l10.8-10.7c7-6.9,18.3-6.9,25.3,0,7,6.9,7,18.2,0,25.1l-10.8,10.7-27.4,28-27.4-28-10.8-10.7c-7-6.9-7-18.2,0-25.1Z"/>
</svg>