<svg viewBox="0 0 100 100" fill="currentColor" xmlns="http://www.w3.org/2000/svg">
<path d="M35.7193 80.7507C35.8819 80.0432 47.102 36.8423 47.102 36.8423C47.1807 36.4472 47.6418 35.2595 48.4085 35.2595C49.1757 35.2595 49.6324 36.4467 49.7096 36.8423C49.7096 36.8423 58.8312 72.0948 60.746 79.3288C62.3144 85.2349 71.6518 83.8976 69.7442 76.1626C68.4335 70.8397 59.2213 35.8159 59.2213 35.8159C57.2287 28.2181 52.4727 26 48.4085 26C44.2656 26 39.6679 28.2171 37.6711 35.8159C37.6711 35.8159 29.0873 67.265 27.7008 72.027C27.4983 72.7226 26.9518 73.5964 25.6641 73.5964C24.3735 73.5964 15.228 73.6049 13.3645 73.6068C11.9861 73.6068 10.9392 72.6671 10.9484 71.0595C10.9484 71.0595 11.0477 35.8328 10.9344 30.6659C10.8001 24.5226 1.99089 24.5082 2.00001 30.6659C2.01104 36.8319 2.00001 72.0378 2.00001 78.3054C2.00001 80.7195 3.78335 82.9777 6.52336 82.9777H25.1733L25.1695 82.9841C25.1695 82.9841 32.5629 82.9693 33.2345 82.9841C34.3107 82.999 35.3379 82.4355 35.7193 80.7507Z"/>
<path d="M89.2935 33.922V32.9405H89.6634C89.8348 32.9405 89.9657 32.9821 90.0559 33.0654C90.1491 33.1487 90.1957 33.2676 90.1957 33.4223C90.1957 33.58 90.1521 33.7034 90.0649 33.7926C89.9777 33.8789 89.8469 33.922 89.6724 33.922H89.2935Z"/>
<path fill-rule="evenodd" clip-rule="evenodd" d="M98 37.1138C97.9957 38.6537 96.7246 39.901 95.1553 39.9052H84.6458C84.2569 39.9064 83.8815 40.044 83.587 40.2929L77.0914 46V41.456C77.089 40.6007 76.3827 39.9076 75.511 39.9052H71.8447C70.2754 39.901 69.0043 38.6537 69 37.1138V19.7914C69.0043 18.2515 70.2754 17.0042 71.8447 17H95.1553C96.7246 17.0042 97.9957 18.2515 98 19.7914V37.1138ZM79.6014 26.9463C79.6199 26.8672 80.8959 22.0365 80.8959 22.0365C80.9048 21.9924 80.9573 21.8596 81.0445 21.8596C81.1317 21.8596 81.1837 21.9923 81.1924 22.0365C81.1924 22.0365 82.2298 25.9784 82.4476 26.7873C82.6259 27.4477 83.6878 27.2982 83.4709 26.4333C83.3218 25.8381 82.2742 21.9218 82.2742 21.9218C82.0476 21.0722 81.5067 20.8242 81.0445 20.8242C80.5733 20.8242 80.0504 21.0721 79.8234 21.9218C79.8234 21.9218 78.8472 25.4384 78.6895 25.9708C78.6665 26.0486 78.6043 26.1463 78.4579 26.1463C78.3111 26.1463 77.271 26.1473 77.0591 26.1475C76.9023 26.1475 76.7833 26.0424 76.7843 25.8626C76.7843 25.8626 76.7956 21.9237 76.7827 21.3459C76.7674 20.659 75.7656 20.6574 75.7666 21.3459C75.7676 21.8675 75.7671 24.2474 75.7668 25.679L75.7666 26.6729C75.7666 26.9428 75.9695 27.1953 76.2811 27.1953H78.402L78.4016 27.196C78.4016 27.196 79.2424 27.1944 79.3188 27.196C79.4412 27.1977 79.558 27.1347 79.6014 26.9463ZM77.578 28.3336H78.151V31.3407H77.578V30.0781H76.3285V31.3407H75.7601V28.3336H76.3285V29.5918H77.578V28.3336ZM78.8182 31.3407V28.3336H79.3866V31.3407H78.8182ZM81.8101 30.841H80.6237V28.3336H80.0553V31.3407H81.8101V30.841ZM84.0223 28.7931H82.8133V29.681H83.8689V30.1405H82.8133V31.3407H82.2404V28.3336H84.0223V28.7931ZM86.305 30.8811H85.0644V30.0647H86.1516V29.6096H85.0644V28.7931H86.287V28.3336H84.4915V31.3407H86.305V30.8811ZM77.975 32.6014V33.1502C77.7465 33.0193 77.4938 32.9538 77.2172 32.9538C76.9405 32.9538 76.7089 33.0475 76.5224 33.2349C76.339 33.4193 76.2473 33.6677 76.2473 33.98C76.2473 34.2923 76.339 34.5407 76.5224 34.7251C76.7089 34.9095 76.951 35.0017 77.2487 35.0017C77.5344 35.0017 77.778 34.9273 77.9795 34.7786V35.3408C77.7931 35.4597 77.5314 35.5192 77.1946 35.5192C76.7435 35.5192 76.3706 35.3794 76.0758 35.0998C75.7841 34.8173 75.6383 34.444 75.6383 33.98C75.6383 33.5249 75.7826 33.1546 76.0713 32.8691C76.363 32.5806 76.7375 32.4363 77.1946 32.4363C77.5284 32.4363 77.7886 32.4913 77.975 32.6014ZM80.3225 35.024H79.0819V34.2075H80.1691V33.7525H79.0819V32.936H80.3044V32.4765H78.509V35.4835H80.3225V35.024ZM80.8923 35.4835V32.4765H81.5374L82.2682 33.7302C82.3885 33.9354 82.4953 34.1272 82.5885 34.3057C82.6847 34.4812 82.7494 34.6061 82.7825 34.6805L82.8321 34.792C82.808 34.5451 82.796 34.1912 82.796 33.7302V32.4765H83.3689V35.4835H82.7193L81.9795 34.2343C81.8622 34.038 81.7555 33.8506 81.6592 33.6722C81.566 33.4907 81.5013 33.3598 81.4652 33.2795L81.4111 33.1546C81.4442 33.4372 81.4607 33.7956 81.4607 34.2298V35.4835H80.8923ZM85.9153 32.9405V32.4765H83.7996V32.9405H84.571V35.4835H85.1439V32.9405H85.9153ZM86.9147 35.024H88.1553V35.4835H86.3418V32.4765H88.1372V32.936H86.9147V33.7525H88.0019V34.2075H86.9147V35.024ZM89.6048 34.386L90.295 35.4835H90.9761L90.1957 34.2968C90.3732 34.2254 90.513 34.1168 90.6153 33.9711C90.7175 33.8224 90.7701 33.6409 90.7731 33.4268C90.7731 33.1383 90.6739 32.9077 90.4754 32.7352C90.2799 32.5627 90.0093 32.4765 89.6634 32.4765H88.7251V35.4835H89.2935V34.386H89.6048Z" />
</svg>
