<svg viewBox="0 0 100 100" fill="currentColor" xmlns="http://www.w3.org/2000/svg">
  <path d="M69.4787 58.4341V55.2188H70.6905C71.252 55.2188 71.6806 55.3552 71.9762 55.628C72.2816 55.9008 72.4343 56.2906 72.4343 56.7972C72.4343 57.3136 72.2914 57.718 72.0057 58.0103C71.72 58.2929 71.2915 58.4341 70.72 58.4341H69.4787Z" />
  <path fill-rule="evenodd" clip-rule="evenodd" d="M98 68.89C97.9858 73.9345 93.8219 78.0205 88.6812 78.0344H54.2534C52.9794 78.0383 51.7498 78.4888 50.7851 79.3044L29.5064 98V83.1146C29.4983 80.3125 27.1848 78.0423 24.3293 78.0344H12.3188C7.17809 78.0205 3.01416 73.9345 3 68.89V12.1444C3.01416 7.09989 7.17809 3.01389 12.3188 3H88.6812C93.8219 3.01389 97.9858 7.09989 98 12.1444V68.89ZM37.7287 35.5827C37.7893 35.3235 41.9693 19.499 41.9693 19.499C41.9986 19.3543 42.1704 18.9192 42.456 18.9192C42.7419 18.9192 42.912 19.3541 42.9408 19.499C42.9408 19.499 46.339 32.412 47.0524 35.0618C47.6367 37.2253 51.1153 36.7354 50.4046 33.9021C49.9163 31.9523 46.4843 19.1231 46.4843 19.1231C45.742 16.34 43.9702 15.5275 42.456 15.5275C40.9126 15.5275 39.1997 16.3396 38.4558 19.1231C38.4558 19.1231 35.258 30.6429 34.7414 32.3872C34.666 32.642 34.4624 32.9621 33.9826 32.9621C33.5018 32.9621 30.0947 32.9652 29.4004 32.9659C28.8869 32.9659 28.4969 32.6217 28.5003 32.0328C28.5003 32.0328 28.5373 19.1292 28.4951 17.2366C28.4451 14.9863 25.1632 14.9811 25.1666 17.2366C25.1697 18.9453 25.1681 26.7416 25.1672 31.431L25.1666 34.687C25.1666 35.5713 25.831 36.3985 26.8518 36.3985H33.7998L33.7984 36.4008C33.7984 36.4008 36.5528 36.3954 36.803 36.4008C37.2039 36.4063 37.5866 36.1999 37.7287 35.5827ZM31.1005 40.1273H32.9773V49.9781H31.1005V45.8419H27.007V49.9781H25.145V40.1273H27.007V44.2489H31.1005V40.1273ZM35.1632 49.9781V40.1273H37.0252V49.9781H35.1632ZM44.9642 48.3412H41.0777V40.1273H39.2157V49.9781H44.9642V48.3412ZM52.2109 41.6327H48.2504V44.5412H51.7084V46.0466H48.2504V49.9781H46.3737V40.1273H52.2109V41.6327ZM59.6888 48.4727H55.6249V45.7981H59.1863V44.3073H55.6249V41.6327H59.6297V40.1273H53.7481V49.9781H59.6888V48.4727ZM32.4009 54.108V55.9057C31.6522 55.477 30.8246 55.2626 29.9183 55.2626C29.0119 55.2626 28.2533 55.5695 27.6425 56.1834C27.0415 56.7875 26.741 57.6011 26.741 58.6241C26.741 59.6472 27.0415 60.4608 27.6425 61.0649C28.2533 61.669 29.0464 61.9711 30.0217 61.9711C30.9576 61.9711 31.7556 61.7275 32.4157 61.2403V63.0818C31.8049 63.4716 30.9478 63.6665 29.8444 63.6665C28.3666 63.6665 27.145 63.2085 26.1795 62.2926C25.2238 61.367 24.746 60.1441 24.746 58.6241C24.746 57.1334 25.2189 55.9203 26.1647 54.9849C27.1203 54.0398 28.3469 53.5672 29.8444 53.5672C30.9379 53.5672 31.7901 53.7475 32.4009 54.108ZM40.0909 62.0441H36.027V59.3695H39.5885V57.8788H36.027V55.2041H40.0318V53.6988H34.1502V63.5495H40.0909V62.0441ZM41.9576 63.5495V53.6988H44.0709L46.4649 57.8057C46.8589 58.478 47.2087 59.1065 47.5141 59.6911C47.8293 60.2659 48.0412 60.6752 48.1495 60.9188L48.3121 61.2841C48.2333 60.4754 48.1939 59.3159 48.1939 57.8057V53.6988H50.0706V63.5495H47.9426L45.5191 59.4572C45.1349 58.8141 44.7851 58.2003 44.4699 57.6157C44.1645 57.0213 43.9526 56.5926 43.8344 56.3295L43.6571 55.9203C43.7655 56.8459 43.8196 58.02 43.8196 59.4426V63.5495H41.9576ZM58.4124 55.2188V53.6988H51.4816V55.2188H54.0086V63.5495H55.8853V55.2188H58.4124ZM61.6861 62.0441H65.75V63.5495H59.8093V53.6988H65.6909V55.2041H61.6861V57.8788H65.2475V59.3695H61.6861V62.0441ZM70.4984 59.9541L72.7594 63.5495H74.9908L72.4343 59.6618C73.0155 59.428 73.4736 59.0724 73.8086 58.5949C74.1436 58.1077 74.316 57.5134 74.3258 56.8118C74.3258 55.8667 74.0007 55.1116 73.3505 54.5465C72.7101 53.9813 71.8235 53.6988 70.6905 53.6988H67.6167V63.5495H69.4787V59.9541H70.4984Z"/>
</svg>
