<svg viewBox="0 0 100 50" fill="currentColor" xmlns="http://www.w3.org/2000/svg">
<path d="M81 35.0384V39.0373H80.9879L81 39.173C80.2569 39.7161 79.328 39.9876 78.2133 39.9876C76.9209 39.9876 75.8749 39.605 75.0752 38.8398C74.2836 38.0746 73.8878 37.0337 73.8878 35.7172C73.8878 34.4336 74.2957 33.3969 75.1116 32.607C75.9355 31.8171 76.9734 31.4221 78.2254 31.4221C79.1543 31.4221 79.9499 31.599 80.6123 31.9529V33.545C79.8692 33.0925 79.0816 32.8662 78.2496 32.8662C77.4338 32.8662 76.7755 33.1254 76.2747 33.6437C75.7739 34.1621 75.5235 34.8533 75.5235 35.7172C75.5235 36.5976 75.7658 37.2929 76.2505 37.803C76.7432 38.305 77.4177 38.5559 78.2739 38.5559C78.6939 38.5559 79.1018 38.4819 79.4976 38.3338V36.3714H77.9952V35.0384H81Z" />
<path d="M65.8733 39.8889V31.5703H67.6059L69.5687 35.0384C69.8918 35.6062 70.1785 36.1369 70.4289 36.6306C70.6874 37.116 70.8611 37.4616 70.9499 37.6673L71.0832 37.9759C71.0186 37.2929 70.9863 36.3138 70.9863 35.0384V31.5703H72.525V39.8889H70.7803L68.7933 36.4331C68.4782 35.8901 68.1915 35.3717 67.933 34.878C67.6826 34.3761 67.5089 34.014 67.412 33.7919L67.2666 33.4463C67.3555 34.228 67.3999 35.2195 67.3999 36.4208V39.8889H65.8733Z" />
<path d="M62.6967 36.7046V31.5703H64.2233V36.6923C64.2233 37.7702 63.9366 38.593 63.3631 39.1607C62.7977 39.7202 62.0182 40 61.0247 40C60.0554 40 59.2799 39.7244 58.6984 39.1731C58.1249 38.6136 57.8381 37.8154 57.8381 36.7787V31.5703H59.3648V36.7664C59.3648 37.3999 59.5182 37.8607 59.8252 38.1487C60.1321 38.4284 60.5319 38.5683 61.0247 38.5683C62.1394 38.5683 62.6967 37.9471 62.6967 36.7046Z" />
<path d="M49.5449 39.8889V31.5703H51.2775L53.2403 35.0384C53.5634 35.6062 53.8502 36.1369 54.1006 36.6306C54.359 37.116 54.5327 37.4616 54.6216 37.6673L54.7548 37.9759C54.6902 37.2929 54.6579 36.3138 54.6579 35.0384V31.5703H56.1966V39.8889H54.4519L52.4649 36.4331C52.1499 35.8901 51.8631 35.3717 51.6046 34.878C51.3542 34.3761 51.1806 34.014 51.0836 33.7919L50.9382 33.4463C51.0271 34.228 51.0715 35.2195 51.0715 36.4208V39.8889H49.5449Z" />
<path d="M46.3108 31.5703H47.8496V39.8889H46.3108V36.3961H42.9547V39.8889H41.428V31.5703H42.9547V35.0508H46.3108V31.5703Z" />
<path d="M39.9938 31.9158V33.4339C39.3799 33.0719 38.7014 32.8909 37.9583 32.8909C37.2152 32.8909 36.5932 33.1501 36.0924 33.6684C35.5997 34.1786 35.3533 34.8656 35.3533 35.7296C35.3533 36.5935 35.5997 37.2806 36.0924 37.7907C36.5932 38.3009 37.2435 38.5559 38.0431 38.5559C38.8105 38.5559 39.4647 38.3502 40.0059 37.9388V39.4939C39.5051 39.8231 38.8024 39.9876 37.8977 39.9876C36.6861 39.9876 35.6845 39.6009 34.8929 38.8275C34.1094 38.0458 33.7177 37.0132 33.7177 35.7296C33.7177 34.4707 34.1054 33.4463 34.8808 32.6564C35.6643 31.8582 36.67 31.4592 37.8977 31.4592C38.7943 31.4592 39.493 31.6114 39.9938 31.9158Z" />
<path d="M29.1823 38.6177H32.5143V39.8889H27.6436V31.5703H32.4658V32.8415H29.1823V35.1002H32.1023V36.3591H29.1823V38.6177Z" />
<path d="M22.0354 32.8539V35.5692H23.0532C23.5217 35.5692 23.873 35.4499 24.1073 35.2112C24.3415 34.9644 24.4586 34.6229 24.4586 34.1868C24.4586 33.759 24.3334 33.4298 24.083 33.1995C23.8407 32.9691 23.4894 32.8539 23.0289 32.8539H22.0354ZM24.7252 39.8889L22.8714 36.8527H22.0354V39.8889H20.5088V31.5703H23.0289C23.9578 31.5703 24.6848 31.8089 25.2098 32.2861C25.743 32.7634 26.0095 33.4011 26.0095 34.1992C26.0014 34.7916 25.8601 35.2935 25.5854 35.7049C25.3108 36.1081 24.9352 36.4084 24.4586 36.6059L26.5547 39.8889H24.7252Z" />
<path d="M41.4455 22.5564H38.1984V25.0125H41.0336V26.2837H38.1984V29.6038H36.6597V21.2851H41.4455V22.5564Z" />
<path d="M33.4831 26.4195V21.2851H35.0097V26.4071C35.0097 27.485 34.723 28.3078 34.1495 28.8756C33.5841 29.4351 32.8046 29.7149 31.8111 29.7149C30.8418 29.7149 30.0664 29.4392 29.4848 28.8879C28.9113 28.3284 28.6245 27.5303 28.6245 26.4935V21.2851H30.1512V26.4812C30.1512 27.1148 30.3046 27.5755 30.6116 27.8635C30.9185 28.1433 31.3184 28.2832 31.8111 28.2832C32.9258 28.2832 33.4831 27.6619 33.4831 26.4195Z" />
<path d="M22.5807 26.4442H24.8828L24.7738 26.0739C24.4991 25.1853 24.273 24.4406 24.0953 23.84C23.9256 23.2311 23.8206 22.8485 23.7802 22.6922L23.7318 22.4453C23.6591 22.8567 23.3117 24.0704 22.6898 26.0863L22.5807 26.4442ZM25.8521 29.6038L25.2705 27.7154H22.1809L21.5993 29.6038H20L22.7625 21.2851H24.7374L27.4999 29.6038H25.8521Z" />
<path d="M49.0536 12.2712H45.8065V14.7273H48.6417V15.9986H45.8065V19.3186H44.2678V11H49.0536V12.2712Z" />
<path d="M41.0912 16.1343V11H42.6178V16.122C42.6178 17.1999 42.3311 18.0227 41.7576 18.5904C41.1921 19.15 40.4127 19.4297 39.4192 19.4297C38.4499 19.4297 37.6744 19.1541 37.0929 18.6028C36.5194 18.0433 36.2326 17.2451 36.2326 16.2084V11H37.7592V16.1961C37.7592 16.8296 37.9127 17.2904 38.2197 17.5784C38.5266 17.8581 38.9264 17.998 39.4192 17.998C40.5338 17.998 41.0912 17.3768 41.0912 16.1343Z" />
<path d="M30.1888 16.159H32.4909L32.3818 15.7888C32.1072 14.9001 31.881 14.1555 31.7033 13.5548C31.5337 12.9459 31.4287 12.5633 31.3883 12.407L31.3398 12.1602C31.2671 12.5716 30.9198 13.7852 30.2979 15.8011L30.1888 16.159ZM33.4602 19.3186L32.8786 17.4303H29.789L29.2074 19.3186H27.6081L30.3706 11H32.3455L35.108 19.3186H33.4602Z" />
<path d="M20.5088 19.3186V11H22.0354V19.3186H20.5088ZM23.974 15.1717L27.0151 19.3186H25.0887L22.1566 15.1963L24.9796 11H26.8092L23.974 15.1717Z" />
</svg>
