<svg viewBox="0 0 100 50" fill="currentColor" xmlns="http://www.w3.org/2000/svg">
<path d="M76.3806 25.3833C76.4189 28.8485 76.3952 32.31 76.3952 35.768C76.3952 36.5794 76.2985 36.6711 75.4572 36.6711C74.4845 36.6765 73.5082 36.6765 72.5337 36.6711C71.7727 36.6711 71.687 36.5902 71.687 35.8579C71.687 32.4971 71.6979 29.1381 71.676 25.7755C71.676 25.2142 71.5976 24.651 71.4935 24.0969C71.3457 23.2963 70.7946 22.8411 70.0081 22.7134C68.5792 22.4795 67.2945 22.9257 66.0973 23.6525C65.9386 23.7497 65.8765 24.1005 65.8765 24.3344C65.8601 27.1627 65.8656 29.9909 65.8656 32.8192C65.8656 33.8843 65.8528 34.9457 65.871 36.0072C65.8802 36.4948 65.663 36.6819 65.1812 36.6765C64.1027 36.6567 63.0242 36.6711 61.9457 36.6675C61.3216 36.6639 61.1501 36.4912 61.1501 35.8633C61.1482 30.5145 61.1482 25.1674 61.1501 19.8185C61.1501 19.2554 61.3216 19.0791 61.8946 19.0755C62.8673 19.0665 63.8381 19.0683 64.8181 19.0737C65.4349 19.0773 65.5407 19.1906 65.5553 19.7952C65.559 20.0272 65.5809 20.2557 65.5955 20.6246C65.9149 20.4249 66.101 20.3133 66.2871 20.191C68.1868 18.9208 70.2964 18.6113 72.51 18.9981C74.5375 19.3472 75.6415 20.6839 76.0521 22.582C76.2583 23.5014 76.3697 24.4477 76.3806 25.3833ZM95.7044 17.8665L95.4799 18.4656C95.427 18.6221 95.3795 18.7571 95.3485 18.883C95.3102 18.7535 95.27 18.6167 95.2189 18.4656L95.0054 17.8665H94.7992L94.7134 19.1043H94.8667L94.9032 18.5717C94.9142 18.3846 94.9233 18.1777 94.927 18.0248H94.9306C94.9689 18.1705 95.0164 18.3307 95.0748 18.5052L95.2792 19.0971H95.4014L95.6222 18.4944C95.6861 18.3235 95.7354 18.1687 95.7792 18.0248H95.7828C95.7828 18.1759 95.7938 18.3882 95.8066 18.5591L95.8358 19.1043H96L95.9215 17.8665H95.7044ZM46.54 24.2139C46.644 28.1324 46.6239 32.0581 46.6477 35.9821C46.6495 36.5056 46.456 36.6765 45.9104 36.6801C44.9706 36.6837 44.0326 36.6819 43.0946 36.6801C42.2989 36.6801 42.2004 36.583 42.1602 35.8093C42.1566 35.7248 42.1402 35.642 42.1183 35.4783C41.5836 35.7716 41.1292 36.0522 40.6511 36.2807C38.9813 37.0777 37.2422 37.1515 35.4866 36.6423C33.9063 36.1782 32.9391 35.1059 32.5522 33.5316C32.273 32.3946 32.2493 31.2521 32.481 30.1204C32.8424 28.3681 34.0413 27.3947 35.7093 26.9018C37.3243 26.4196 38.9868 26.3656 40.6547 26.3818C41.8482 26.3962 41.85 26.3854 41.8464 25.1926C41.8464 24.8849 41.8683 24.5683 41.8117 24.2696C41.6329 23.3089 40.9795 22.7098 39.9029 22.7098C38.0999 22.7098 36.2951 22.7853 34.4939 22.8861C33.6106 22.9383 33.4938 22.8951 33.4938 22.0153C33.4938 21.3982 33.5048 20.7793 33.4902 20.1658C33.4829 19.8221 33.6198 19.5865 33.9519 19.5181C36.7494 18.9298 39.5616 18.5232 42.3993 19.2176C44.9578 19.8383 46.4706 21.5925 46.54 24.2139ZM41.9577 32.1697C41.9157 31.7613 41.9486 31.3475 41.9486 30.9337C41.9486 30.4029 41.9686 29.8704 41.934 29.3414C41.9248 29.2083 41.7405 28.9762 41.6438 28.9798C40.5562 29.0176 39.4631 29.0464 38.3827 29.1777C37.7203 29.2605 37.2349 29.7372 37.1017 30.3885C36.9776 30.9984 36.9411 31.6425 36.9922 32.2668C37.0506 32.9505 37.5506 33.3499 38.2331 33.4651C39.3298 33.6522 40.3627 33.4417 41.3847 33.0513C41.8245 32.8857 42.0124 32.6446 41.9577 32.1697ZM92.9889 25.1836C92.998 28.7495 92.9944 32.3172 92.9926 35.8831C92.9926 36.5902 92.9032 36.6711 92.175 36.6711C91.2699 36.6765 90.3684 36.6765 89.4632 36.6711C88.6858 36.6711 88.6366 36.6262 88.5964 35.8795C88.5928 35.7913 88.5836 35.7068 88.5654 35.6204C88.5617 35.588 88.5289 35.5683 88.476 35.4891C88.3628 35.5395 88.2588 35.5719 88.1767 35.6294C86.965 36.52 85.5707 36.8672 84.0908 36.9806C81.1618 37.2145 78.9227 35.3146 78.784 32.4215C78.7493 31.7091 78.7311 30.9822 78.8387 30.2824C79.1052 28.5948 80.1599 27.4739 81.7859 27.0223C83.0122 26.6841 84.2988 26.5401 85.5671 26.3926C86.3043 26.3045 87.0617 26.3674 87.8099 26.3782C88.1384 26.389 88.3008 26.2775 88.2825 25.9392C88.2552 25.4301 88.3026 24.9065 88.215 24.4028C88.0197 23.2783 87.3737 22.6936 86.2204 22.6972C84.4338 22.708 82.6473 22.7871 80.8589 22.8861C79.961 22.9329 79.8333 22.8627 79.8333 21.9523C79.8333 21.3874 79.8351 20.8207 79.8333 20.2557C79.8315 19.8167 80.0231 19.5721 80.4793 19.4677C82.5579 19.0053 84.6565 18.7553 86.7806 18.8866C87.6694 18.9424 88.5727 19.1349 89.4194 19.4137C91.4396 20.0776 92.5546 21.5421 92.8794 23.5932C92.9615 24.1221 92.9871 24.6564 92.9889 25.1836ZM88.392 32.3334C88.3701 31.8674 88.3884 31.4068 88.3847 30.9463C88.3847 30.4533 88.3756 29.9531 88.392 29.4566C88.3993 29.1183 88.2807 28.9474 87.9103 28.9636C87.2515 28.978 86.5854 28.9258 85.9302 28.9762C83.7349 29.1399 83.3371 29.9441 83.3097 31.7235C83.2951 32.7706 83.7897 33.3355 84.6346 33.4776C85.808 33.6666 86.9047 33.4273 87.9723 32.9613C88.2625 32.8336 88.4048 32.6608 88.392 32.3334ZM29.0904 13.0034C28.0812 13.0034 27.0739 13.0034 26.0647 13.0034C25.3074 13.0052 25.2362 13.079 25.2362 13.8346C25.2362 17.4851 25.2362 21.1373 25.2362 24.7878C25.2362 28.5066 25.2362 32.2254 25.2362 35.9479C25.2362 36.565 25.3439 36.6675 25.9607 36.6711C26.9498 36.6765 27.9407 36.6711 28.9334 36.6711C29.866 36.6711 29.9517 36.5902 29.9517 35.6834C29.9517 29.426 29.9517 23.1686 29.9517 16.9129C29.9517 15.8838 29.9536 14.8565 29.9517 13.8274C29.9499 13.1275 29.8185 13.0052 29.0904 13.0034ZM93.6751 18.0014H94.0583V19.1043H94.2225V18.0014H94.6058V17.8665H93.6751V18.0014ZM58.5167 18.865C57.159 18.9226 55.9327 19.3436 54.8341 20.1262C54.6845 20.2341 54.5348 20.3331 54.3104 20.4914C54.2921 20.2449 54.272 20.0992 54.272 19.9517C54.2574 19.214 54.1261 19.0773 53.3943 19.0773C52.4508 19.0737 51.5165 19.0755 50.5766 19.0755C49.7171 19.0773 49.5748 19.214 49.5748 20.0578C49.5748 22.4219 49.5748 24.7896 49.5748 27.1537C49.5748 30.0215 49.573 32.8839 49.5748 35.7428C49.5748 36.502 49.7445 36.6711 50.4763 36.6711C51.4654 36.6765 52.4599 36.6765 53.4508 36.6711C54.2501 36.6711 54.3779 36.5524 54.3779 35.7392C54.3797 31.9376 54.3834 28.1306 54.3706 24.32C54.3706 23.944 54.4819 23.7299 54.8323 23.5662C55.9929 23.0282 57.1827 22.6252 58.4875 22.6774C58.9657 22.6972 59.1974 22.5191 59.1865 22.0207C59.1664 21.1787 59.1701 20.3421 59.1847 19.5019C59.1865 19.0431 58.9784 18.847 58.5167 18.865ZM9.26842 13.0052C8.34685 12.9998 7.42528 12.9962 6.50189 13.007C5.53469 13.0214 5 13.5647 5 14.5219C5 18.0536 5 21.5871 5 25.1188C5 28.7045 5 32.2848 5 35.8705C5 36.4984 5.08577 36.583 5.72448 36.583C6.66248 36.5902 7.60229 36.5902 8.54029 36.583C9.52573 36.5758 10.0203 36.0918 10.0203 35.1257C10.0203 28.01 10.0203 20.8908 10.0203 13.777C10.0221 13.1527 9.88888 13.0106 9.26842 13.0052ZM19.6338 29.1435C17.6191 27.0673 15.1409 25.9248 12.4383 25.6604C11.566 25.6442 11.5587 25.6442 11.5824 26.2937C11.5915 26.533 11.639 26.7686 11.6754 27.0061C12.159 30.1636 13.7248 32.6788 16.3307 34.5589C18.0388 35.7967 19.9714 36.439 22.0755 36.6333C22.7014 36.6927 22.8073 36.6495 22.7452 36.045C22.477 33.4111 21.5043 31.074 19.6338 29.1435ZM22.0901 13.0628C21.851 13.1005 21.6029 13.0862 21.3656 13.1221C18.6246 13.5521 16.2979 14.7486 14.4475 16.7978C12.7521 18.6725 11.8105 20.8836 11.5879 23.3809C11.5313 24.0321 11.5678 24.0339 12.2631 24.1221C13.2175 23.89 14.2102 23.7479 15.1227 23.406C19.6794 21.7005 22.1722 18.39 22.7471 13.6403C22.8201 13.0376 22.7179 12.9692 22.0901 13.0628Z" />
</svg>
