<svg viewBox="0 0 100 50" fill="currentColor" xmlns="http://www.w3.org/2000/svg">
<path d="M19.8485 17.0726C19.5408 16.4662 19.0541 15.9661 18.4499 15.5905C17.8195 15.2113 17.0755 14.9456 16.2251 14.7881C15.3598 14.6342 14.3602 14.5646 13.2021 14.5536L7.85554 14.5572C7.29981 14.5646 6.75527 14.9896 6.62473 15.5172L3.0274 30.91C2.89686 31.4303 3.24559 31.8663 3.80132 31.8663H6.36178C6.91751 31.8663 7.46765 31.4431 7.59073 30.91L8.46909 27.1726C8.58657 26.6524 9.13484 26.2182 9.69617 26.2182H10.4291C13.5602 26.2145 15.9845 25.5861 17.7263 24.3275C19.4774 23.0671 20.3408 21.4017 20.3408 19.3389C20.339 18.4357 20.1879 17.6772 19.8485 17.0726ZM14.3266 22.1016C13.5527 22.6585 12.4767 22.937 11.0892 22.937H10.4626C9.90503 22.937 9.56376 22.5046 9.68498 21.977L10.4552 18.7086C10.5633 18.1847 11.1247 17.7505 11.6748 17.7541L12.514 17.7486C13.493 17.7486 14.2409 17.9154 14.7406 18.2378C15.2348 18.5566 15.4829 19.064 15.4791 19.7364C15.494 20.7587 15.0968 21.5446 14.3266 22.1016ZM49.5242 20.0918L39.3233 37.04C38.9951 37.5695 38.2697 37.9963 37.7177 37.9963L35.0658 38C34.5157 38 34.3348 37.5695 34.6705 37.0418L36.9382 33.1616C36.9382 33.1616 37.1209 32.9362 36.9587 31.6721C36.61 29.3803 34.8682 19.643 34.8682 19.643C34.7432 19.1153 35.0826 18.683 35.6346 18.683L37.9284 18.6793C38.6315 18.6793 39.1965 19.1337 39.3233 19.665L40.4646 26.4197L40.8898 26.4252C41.246 25.8041 44.9124 19.6228 44.9124 19.6228C45.2629 19.1007 45.9716 18.6628 46.5236 18.6628C46.5236 18.6628 48.9871 18.6702 49.5932 18.6628C50.5051 18.6427 49.5242 20.0918 49.5242 20.0918ZM66.3434 17.1294C66.0227 16.5193 65.5415 16.0265 64.9336 15.6418C64.3107 15.2607 63.5722 14.9933 62.7088 14.8394C61.8603 14.691 60.8477 14.6104 59.697 14.6085L54.343 14.6122C53.7854 14.6214 53.2502 15.0464 53.1215 15.5685L49.5204 30.9686C49.3899 31.4908 49.748 31.9231 50.2925 31.9231L52.8567 31.9195C53.4012 31.9231 53.9588 31.4944 54.0875 30.9668L54.9547 27.2276C55.0815 26.7073 55.6316 26.2695 56.1855 26.2731H56.9184C60.0532 26.2731 62.4831 25.6392 64.2324 24.3843C65.9611 23.1147 66.8357 21.453 66.8357 19.3883C66.8264 18.4888 66.6679 17.7285 66.3434 17.1294ZM60.8215 22.1657C60.0495 22.7116 58.9716 22.9901 57.5916 22.9901H56.9538C56.4037 22.9956 56.0475 22.5559 56.1706 22.0319L56.9463 18.7691C57.0601 18.247 57.6158 17.8091 58.1697 17.8146L58.9996 17.8091C59.9842 17.8146 60.7227 17.974 61.2262 18.2964C61.7279 18.6189 61.9647 19.1245 61.9703 19.795C61.9759 20.8173 61.5899 21.6051 60.8215 22.1657ZM32.1939 19.2729C31.2279 18.7379 29.7025 18.4705 27.6176 18.4705C26.5863 18.4705 25.5587 18.5492 24.52 18.7068C23.7536 18.8222 23.679 18.8442 23.2071 18.945C22.2337 19.1538 22.0808 20.1083 22.0808 20.1083L21.7675 21.3742C21.5903 22.1822 22.064 22.151 22.2617 22.0832C22.6868 21.9587 22.9237 21.8304 23.7927 21.6399C24.6226 21.4549 25.4972 21.3156 26.1909 21.3248C27.2147 21.3248 27.998 21.431 28.5202 21.6472C29.0349 21.8671 29.2922 22.2445 29.2922 22.7904L29.2475 23.1458L28.8782 23.3693C27.4255 23.4591 26.3756 23.591 25.1019 23.7724C23.8561 23.9428 22.7633 24.2414 21.8551 24.6499C20.8798 25.0713 20.1562 25.6374 19.6508 26.3574C19.1622 27.081 18.9179 27.9586 18.9179 28.9882C18.9179 29.9573 19.2723 30.7579 19.9604 31.3772C20.6523 31.9854 21.5661 32.2822 22.6589 32.2822C23.3507 32.2785 23.886 32.2254 24.2664 32.1356L25.5065 31.7161L26.5564 31.1445L27.5225 30.518L27.5355 30.5363L27.4385 30.9393L27.4329 30.9558V30.9595C27.3285 31.4505 27.6306 31.8535 28.1173 31.9011L28.1267 31.9121H28.1714H30.1351H30.5044L30.5379 31.8975C31.0489 31.8389 31.5282 31.4358 31.6401 30.9558L33.5068 23.0176L33.6038 22.3709L33.6485 21.7645C33.656 20.6396 33.1618 19.806 32.1939 19.2729ZM28.0651 28.1986L27.666 28.7152L26.659 29.2264C26.1853 29.4151 25.7359 29.5103 25.32 29.5103C24.6897 29.5103 24.1955 29.4206 23.8617 29.2374L23.3675 28.2939C23.3675 27.7827 23.4869 27.3778 23.7424 27.0664L24.8277 26.3409C25.2921 26.187 25.859 26.0569 26.5154 25.9672C27.101 25.8957 28.2572 25.7656 28.4083 25.762L28.5854 26.0679C28.5519 26.242 28.2236 27.5904 28.0651 28.1986ZM91.9966 13.698H92.8525V14.0443H91.9966V15.1636L92.0003 15.4659L92.0618 15.6675L92.1961 15.7957L92.4591 15.836L92.6735 15.8067L92.8339 15.7591H92.8563V16.1273L92.597 16.1768L92.3528 16.1969L91.7709 15.9917L91.5732 15.3468V14.0443H91.286V13.698H91.5732V13H91.9966V13.698ZM78.6982 19.2839C77.7266 18.7489 76.203 18.4796 74.1237 18.4796C73.0924 18.4796 72.063 18.5584 71.028 18.7215C70.2596 18.8314 70.1832 18.8552 69.7095 18.9541C68.7379 19.1611 68.5869 20.1193 68.5869 20.1193L68.2736 21.3834C68.0983 22.1913 68.5608 22.1547 68.7771 22.0924C69.2041 21.9678 69.4335 21.8451 70.2951 21.6472C71.1212 21.464 72.0033 21.3284 72.6989 21.3321C73.719 21.3321 74.5022 21.4402 75.0225 21.6564C75.541 21.8762 75.7946 22.2573 75.7946 22.7977L75.7554 23.1513L75.3899 23.3803C73.9223 23.4664 72.8705 23.5983 71.6098 23.7797C70.3678 23.9501 69.2713 24.2469 68.3612 24.6573C67.3896 25.0805 66.6567 25.6466 66.1569 26.3684C65.6627 27.092 65.4222 27.9678 65.4222 28.9882C65.4222 29.9647 65.7728 30.7653 66.4702 31.3808C67.1658 31.9872 68.0703 32.2914 69.1631 32.2914C69.8512 32.284 70.3865 32.2401 70.7688 32.143L72.0052 31.7289L73.0644 31.1573L74.023 30.5234L74.0397 30.5436L73.9521 30.9503L73.9428 30.9576L73.9465 30.965C73.8309 31.456 74.1348 31.8627 74.6272 31.9066L74.6309 31.9158H74.6757C74.9983 31.9158 76.1135 31.9158 76.645 31.9158H77.0067L77.0459 31.903C77.5513 31.8425 78.0287 31.4395 78.135 30.954L80.0073 23.0267L80.1062 22.3764L80.1602 21.7681C80.1621 20.6469 79.6735 19.817 78.6982 19.2839ZM74.5787 28.2096L74.1628 28.7317L73.1651 29.2392C72.6914 29.4261 72.2401 29.5232 71.8317 29.5232C71.1809 29.5232 70.6998 29.4316 70.3753 29.2484L69.8755 28.3085C69.8755 27.7955 69.9967 27.3943 70.241 27.0774C70.489 26.7788 70.8676 26.5333 71.3375 26.3537C71.7963 26.1998 72.3632 26.0753 73.0234 25.9818C73.6052 25.9104 74.7577 25.7766 74.9069 25.7748L75.0878 26.0808C75.0617 26.2548 74.7316 27.5977 74.5787 28.2096ZM88.2985 15.6913L88.306 15.6931L84.8784 30.9558L84.7553 31.139C84.5557 31.5677 84.1175 31.9158 83.6513 31.9158H81.2698L81.2307 31.8627C80.7756 31.7949 80.481 31.4395 80.5873 30.9686L80.5836 30.9576L80.688 30.518L83.8937 16.2024L84.0093 15.7041L84.1361 15.5099C84.3431 15.0885 84.7665 14.7459 85.2364 14.7459H87.5302C88.0803 14.7386 88.416 15.1655 88.2985 15.6913ZM96.8042 13.8757L97 14.5591V16.1474H96.5823V14.7496L96.5543 14.451L96.5021 14.2146L96.3529 14.0736L96.0788 14.0241L95.7282 14.1102L95.3738 14.3319L95.3813 14.451L95.3888 14.5811V16.1456H94.9729V14.7478L94.9524 14.4455L94.8908 14.211L94.751 14.0699L94.4675 14.0204L94.1206 14.1047L93.7719 14.3172V16.1438H93.3579V13.698H93.7738V13.9692L94.1673 13.72L94.5831 13.6302L95.0158 13.731L95.2825 14.0223L95.7412 13.7182L96.1925 13.6284L96.8042 13.8757Z" />
</svg>
