<svg viewBox="0 0 100 50" fill="currentColor" xmlns="http://www.w3.org/2000/svg">
<path d="M79.2343 28.5605H83V29.8962H77.4952V21.1557H82.9452V22.4914H79.2343V24.8646H82.5344V26.1873H79.2343V28.5605Z" />
<path d="M75.5429 21.5188V23.101C74.8582 22.7119 74.1279 22.5174 73.352 22.5174C72.9229 22.5174 72.5851 22.6082 72.3386 22.7897C72.1013 22.9713 71.9826 23.2047 71.9826 23.49C71.9826 23.7753 72.1104 24.013 72.366 24.2032C72.6308 24.3848 73.0233 24.588 73.5437 24.8127C73.9088 24.9684 74.2055 25.1067 74.4337 25.2277C74.662 25.3401 74.9084 25.5001 75.1732 25.7075C75.447 25.915 75.6479 26.1658 75.7757 26.4597C75.9126 26.745 75.9811 27.0735 75.9811 27.4453C75.9811 28.2234 75.6844 28.8458 75.091 29.3127C74.5068 29.7709 73.7354 30 72.7768 30C71.7361 30 70.8734 29.8141 70.1888 29.4424V27.7695C70.9739 28.3055 71.832 28.5735 72.7631 28.5735C73.1831 28.5735 73.5208 28.4784 73.7765 28.2882C74.0321 28.0894 74.1599 27.8257 74.1599 27.4972C74.1599 27.3415 74.1279 27.2032 74.064 27.0822C74.0001 26.9611 73.8677 26.8401 73.6669 26.7191C73.4752 26.598 73.3246 26.5116 73.215 26.4597C73.1146 26.4078 72.9001 26.3127 72.5714 26.1744C72.4801 26.1312 72.4117 26.1009 72.366 26.0836C72.0283 25.9367 71.7544 25.807 71.5444 25.6946C71.3345 25.5735 71.1062 25.4136 70.8597 25.2148C70.6133 25.0159 70.4261 24.7782 70.2983 24.5015C70.1796 24.2249 70.1203 23.9093 70.1203 23.5548C70.1203 22.8113 70.4079 22.2148 70.983 21.7652C71.5672 21.3157 72.3386 21.0909 73.2972 21.0909C74.1644 21.0909 74.913 21.2335 75.5429 21.5188Z" />
<path d="M68.4555 21.5188V23.101C67.7708 22.7119 67.0405 22.5174 66.2645 22.5174C65.8355 22.5174 65.4977 22.6082 65.2512 22.7897C65.0139 22.9713 64.8952 23.2047 64.8952 23.49C64.8952 23.7753 65.023 24.013 65.2786 24.2032C65.5433 24.3848 65.9359 24.588 66.4562 24.8127C66.8214 24.9684 67.1181 25.1067 67.3463 25.2277C67.5745 25.3401 67.821 25.5001 68.0858 25.7075C68.3596 25.915 68.5605 26.1658 68.6883 26.4597C68.8252 26.745 68.8937 27.0735 68.8937 27.4453C68.8937 28.2234 68.597 28.8458 68.0036 29.3127C67.4193 29.7709 66.6479 30 65.6894 30C64.6487 30 63.786 29.8141 63.1013 29.4424V27.7695C63.8864 28.3055 64.7446 28.5735 65.6757 28.5735C66.0956 28.5735 66.4334 28.4784 66.689 28.2882C66.9446 28.0894 67.0724 27.8257 67.0724 27.4972C67.0724 27.3415 67.0405 27.2032 66.9766 27.0822C66.9127 26.9611 66.7803 26.8401 66.5795 26.7191C66.3878 26.598 66.2371 26.5116 66.1276 26.4597C66.0272 26.4078 65.8126 26.3127 65.484 26.1744C65.3927 26.1312 65.3242 26.1009 65.2786 26.0836C64.9408 25.9367 64.667 25.807 64.457 25.6946C64.247 25.5735 64.0188 25.4136 63.7723 25.2148C63.5258 25.0159 63.3387 24.7782 63.2109 24.5015C63.0922 24.2249 63.0329 23.9093 63.0329 23.5548C63.0329 22.8113 63.3204 22.2148 63.8956 21.7652C64.4798 21.3157 65.2512 21.0909 66.2098 21.0909C67.077 21.0909 67.8256 21.2335 68.4555 21.5188Z" />
<path d="M56.435 26.5763H59.0368L58.9136 26.1873C58.6032 25.2536 58.3476 24.4712 58.1467 23.8401C57.955 23.2003 57.8363 22.7983 57.7907 22.634L57.7359 22.3747C57.6538 22.8069 57.2612 24.0821 56.5583 26.2003L56.435 26.5763ZM60.1323 29.8962L59.475 27.9121H55.9832L55.3259 29.8962H53.5183L56.6404 21.1557H58.8725L61.9946 29.8962H60.1323Z" />
<path d="M45.4948 29.8962V21.1557H47.2202V29.8962H45.4948ZM49.4112 25.5389L52.8482 29.8962H50.671L47.3571 25.5648L50.5477 21.1557H52.6154L49.4112 25.5389Z" />
<path d="M39.1566 22.5043V25.3573H40.3068C40.8363 25.3573 41.2334 25.232 41.4982 24.9813C41.7629 24.7219 41.8953 24.3631 41.8953 23.9049C41.8953 23.4553 41.7538 23.1095 41.4708 22.8675C41.1969 22.6254 40.7998 22.5043 40.2795 22.5043H39.1566ZM42.1965 29.8962L40.1014 26.706H39.1566V29.8962H37.4312V21.1557H40.2795C41.3293 21.1557 42.1509 21.4064 42.7443 21.9078C43.3468 22.4093 43.648 23.0793 43.648 23.9179C43.6389 24.5403 43.4792 25.0677 43.1688 25.5C42.8584 25.9236 42.4339 26.2392 41.8953 26.4467L44.2642 29.8962H42.1965Z" />
<path d="M27.1659 25.4999C27.1659 24.1426 27.5584 23.0533 28.3435 22.232C29.1377 21.4107 30.1967 21 31.5204 21C32.8623 21 33.9259 21.4107 34.711 22.232C35.4961 23.0446 35.8886 24.134 35.8886 25.4999C35.8886 26.8486 35.4915 27.9336 34.6973 28.7549C33.9122 29.5763 32.8578 29.9869 31.5341 29.9869C30.2104 29.9869 29.1514 29.5763 28.3572 28.7549C27.563 27.9336 27.1659 26.8486 27.1659 25.4999ZM29.0145 25.4999C29.0145 26.4164 29.2427 27.1426 29.6992 27.6786C30.1556 28.2146 30.7673 28.4826 31.5341 28.4826C32.31 28.4826 32.9217 28.2189 33.369 27.6916C33.8163 27.1555 34.04 26.425 34.04 25.4999C34.04 24.5749 33.8163 23.8443 33.369 23.3083C32.9217 22.7723 32.3055 22.5043 31.5204 22.5043C30.7444 22.5043 30.1328 22.7723 29.6855 23.3083C29.2381 23.8443 29.0145 24.5749 29.0145 25.4999Z" />
<path d="M26.2161 21.1557L23.0666 29.8962H21.0947L18 21.1557H19.876L21.0126 24.6311C21.2408 25.3228 21.4462 25.9841 21.6288 26.6152C21.8113 27.2464 21.9391 27.7046 22.0122 27.9899L22.108 28.4178C22.3271 27.4495 22.6969 26.1873 23.2172 24.6311L24.3675 21.1557H26.2161Z" />
</svg>
