<svg viewBox="0 0 100 100" fill="currentColor" xmlns="http://www.w3.org/2000/svg">
<path d="M25.9081 22.5993L25.9081 7.10787C31.5659 4.14428 38.5257 2.66252 46.7878 2.66252C55.2296 2.66252 62.0548 4.86272 67.2636 9.26318C72.4722 13.6637 75.0767 19.6807 75.0767 27.3141C75.0766 31.3554 74.2684 34.9925 72.6519 38.2255C71.0355 41.4585 68.9698 44.0179 66.4553 45.9038C64.0306 47.7898 61.516 49.2267 58.9118 50.2146C56.3073 51.2023 53.7928 51.7861 51.368 51.9656L51.0986 64.3588L36.146 64.3589L35.7419 43.2098C50.919 43.2097 58.5075 38.4499 58.5075 28.9306C58.5075 25.1587 57.34 22.1503 55.0051 19.9052C52.6703 17.66 49.2126 16.5375 44.6327 16.5374C38.3463 16.5374 32.1047 18.5581 25.9081 22.5993ZM32.7783 84.9691C32.7783 82.0056 33.7662 79.4912 35.7419 77.4256C37.8074 75.36 40.3668 74.3271 43.4202 74.3271C46.3838 74.3273 48.8984 75.36 50.9639 77.4256C53.0294 79.491 54.0622 82.0056 54.0621 84.9691C54.0622 88.0226 53.0294 90.582 50.9639 92.6475C48.8983 94.6232 46.3838 95.6112 43.4202 95.6111C40.3668 95.6111 37.8074 94.6234 35.7418 92.6475C33.7661 90.582 32.7783 88.0226 32.7783 84.9691Z"/>
</svg>
