<?xml version="1.0" encoding="UTF-8"?>
<svg xmlns="http://www.w3.org/2000/svg" version="1.1" fill="currentColor" viewBox="0 0 100 100">
  <path d="M76.8,67.3c-4.8,0-9.2,2.1-12.2,5.4l-27.1-16.7c.7-1.8,1.1-3.8,1.1-5.9s-.4-4.1-1.1-5.9l27.1-16.7c3,3.3,7.4,5.4,12.2,5.4,9.1,0,16.5-7.3,16.5-16.4S85.9,0,76.8,0s-16.5,7.3-16.5,16.4.4,4.1,1.1,5.9l-27.1,16.7c-3-3.3-7.4-5.4-12.2-5.4-9.1,0-16.5,7.3-16.5,16.4s7.4,16.4,16.5,16.4,9.2-2.1,12.2-5.4l27.1,16.7c-.7,1.8-1.1,3.8-1.1,5.9,0,9,7.4,16.4,16.5,16.4s16.5-7.3,16.5-16.4-7.4-16.4-16.5-16.4ZM66.4,16.4c0-5.7,4.7-10.4,10.5-10.4s10.5,4.7,10.5,10.4-4.7,10.4-10.5,10.4-10.5-4.7-10.5-10.4ZM22.2,60.4c-5.8,0-10.5-4.7-10.5-10.4s4.7-10.4,10.5-10.4,10.5,4.7,10.5,10.4-4.7,10.4-10.5,10.4ZM66.4,83.6c0-5.7,4.7-10.4,10.5-10.4s10.5,4.7,10.5,10.4-4.7,10.4-10.5,10.4-10.5-4.7-10.5-10.4Z"/>
</svg>