<svg viewBox="0 0 100 100" fill="currentColor" xmlns="http://www.w3.org/2000/svg">
<path d="M37.978 3.05882C36.554 1.64706 34.2354 1.64706 32.8114 3.05882L9.07774 26.5882C8.38399 27.2759 7.98234 28.2352 8.0006 29.2126C8.01885 30.19 8.43875 31.1311 9.16902 31.8008L32.9026 53.5202C33.6329 54.1537 34.5092 54.4795 35.4038 54.4795C36.3897 54.4795 37.3755 54.0813 38.0875 53.3211C39.4568 51.855 39.3655 49.5564 37.8867 48.1989L20.9993 32.7601H86.5224C88.5306 32.7601 90.1737 31.1311 90.1737 29.1402C90.1737 27.1492 88.5306 25.5203 86.5224 25.5203H20.4881L37.9962 8.16288C39.4203 6.75112 39.4203 4.47058 37.978 3.05882Z"/>
<path d="M61.9307 96.8416C62.6427 97.6018 63.6286 98 64.6144 98C65.4907 98 66.3853 97.6742 67.0973 97.0407L90.831 75.3213C91.5612 74.6517 91.9811 73.7105 91.9994 72.7331C92.0176 71.7557 91.6343 70.7965 90.9222 70.1087L67.1886 46.5793C65.7646 45.1676 63.446 45.1676 62.022 46.5793C60.598 47.9911 60.598 50.2897 62.022 51.7015L79.5301 69.0408H11.6702C9.66195 69.0408 8.01885 70.6698 8.01885 72.6607C8.01885 74.6517 9.66195 76.2806 11.6702 76.2806H79.0189L62.1498 91.7195C60.6527 93.0769 60.5615 95.3575 61.9307 96.8416Z"/>
</svg>
