<svg viewBox="0 0 100 100" fill="currentColor" xmlns="http://www.w3.org/2000/svg">
<path d="M91.64 28.15C91.16 26.7509 89.8571 25.8182 88.4 25.8182H67.1429V15.4545C67.1429 13.5545 65.6 12 63.7143 12H5.42857C3.54286 12 2 13.5545 2 15.4545V65.5455C2 67.4455 3.54286 69 5.42857 69H12.0629C11.4971 70.0709 11.0686 71.2282 10.8286 72.4545H5.42857C3.54286 72.4545 2 74.0091 2 75.9091C2 77.8091 3.54286 79.3636 5.42857 79.3636H11.3257C13.0914 84.39 17.84 88 23.4286 88C29.0171 88 33.7657 84.39 35.5314 79.3636H66.1829C67.9486 84.39 72.6971 88 78.2857 88C85.3829 88 91.1429 82.1964 91.1429 75.0455C91.1429 72.8691 90.5943 70.8136 89.6514 69H94.5714C96.4571 69 98 67.4455 98 65.5455V47.4091C98 47.0291 97.9314 46.6491 97.8114 46.2864L91.64 28.15ZM23.4286 81.0909C20.12 81.0909 17.4286 78.3791 17.4286 75.0455C17.4286 71.7118 20.12 69 23.4286 69C26.7371 69 29.4286 71.7118 29.4286 75.0455C29.4286 78.3791 26.7371 81.0909 23.4286 81.0909ZM8.85714 62.0909V18.9091H60.2857V62.0909H8.85714ZM65.6857 72.4545H36.0286C35.7886 71.2282 35.36 70.0709 34.7943 69H66.92C66.3543 70.0709 65.9429 71.2282 65.6857 72.4545ZM78.2857 81.0909C74.9771 81.0909 72.2857 78.3791 72.2857 75.0455C72.2857 71.7118 74.9771 69 78.2857 69C81.5943 69 84.2857 71.7118 84.2857 75.0455C84.2857 78.3791 81.5943 81.0909 78.2857 81.0909ZM91.1429 62.0909H67.1429V32.7273H85.9486L91.1429 47.9791V62.0909Z"/>
<path d="M80.8571 37.9091H74C72.1143 37.9091 70.5714 39.4636 70.5714 41.3636C70.5714 43.2636 72.1143 44.8182 74 44.8182H80.8571C82.7429 44.8182 84.2857 43.2636 84.2857 41.3636C84.2857 39.4636 82.7429 37.9091 80.8571 37.9091Z" />
</svg>
