<?xml version="1.0" encoding="UTF-8"?>
<svg xmlns="http://www.w3.org/2000/svg" version="1.1" fill="currentColor" viewBox="0 0 100 100">
  <path d="M82.2,64.5c-4.6,0-8.4,3.8-8.4,8.4s3.8,8.4,8.4,8.4,8.4-3.8,8.4-8.4-3.8-8.4-8.4-8.4ZM82.2,75.4c-1.4,0-2.5-1.1-2.5-2.5s1.1-2.5,2.5-2.5,2.5,1.1,2.5,2.5-1.1,2.5-2.5,2.5Z"/>
  <path d="M81.4,29.5h-14.5c-1.1,0-2,.9-2,2v38.6c0,1.1.9,2,2,2h2.1c1,0,1.8-.7,2-1.7.8-6,5.5-9.6,11.3-9.6s10.5,3.7,11.3,9.6c.1,1,1,1.7,2,1.7h2.1c1.1,0,2-.9,2-2v-19.3c0-.5-.2-.9-.5-1.3l-16.2-19.3c-.4-.4-.9-.7-1.5-.7ZM68.8,45.4v-9.9c0-1.1.9-2,2-2h8.7c.6,0,1.1.3,1.5.7l8.3,9.9c1.1,1.3.2,3.2-1.5,3.2h-17c-1.1,0-2-.9-2-2Z"/>
  <path d="M2.5,72.1h5.1c1,0,1.8-.7,2-1.7.8-6,5.5-9.6,11.3-9.6s10.5,3.7,11.3,9.6c.1,1,1,1.7,2,1.7h24.9c1.1,0,2-.9,2-2V20.6c0-1.1-.9-2-2-2H2.5c-1.1,0-2,.9-2,2v49.5c0,1.1.9,2,2,2Z"/>
  <path d="M20.8,64.5c-4.6,0-8.4,3.8-8.4,8.4s3.8,8.4,8.4,8.4,8.4-3.8,8.4-8.4-3.8-8.4-8.4-8.4ZM20.8,75.4c-1.4,0-2.5-1.1-2.5-2.5s1.1-2.5,2.5-2.5,2.5,1.1,2.5,2.5-1.1,2.5-2.5,2.5Z"/>
</svg>