<?xml version="1.0" encoding="UTF-8"?>
<svg xmlns="http://www.w3.org/2000/svg" version="1.1" fill="currentColor" viewBox="0 0 100 100">
  <path class="cls-1" d="M4.8,96.8h90.4c1,0,1.9-.4,2.5-1,.7-.7,1-1.6,1-2.5-.4-21.3-15.2-39.3-35-45.2,6.7-4.4,11.1-11.9,11.1-20.4,0-13.5-11.1-24.5-24.8-24.5s-24.8,11-24.8,24.5,4.4,16,11,20.4C16.4,53.9,1.7,71.9,1.3,93.2c0,.9.4,1.9,1,2.5.7.7,1.6,1,2.5,1ZM32.3,27.7c0-9.6,8-17.5,17.7-17.5s17.7,7.9,17.7,17.5-8,17.5-17.7,17.5-17.7-7.9-17.7-17.5ZM50,53.1c21.3,0,39.2,16.2,41.4,36.7H8.6c2.2-20.5,20.1-36.7,41.4-36.7Z"/>
</svg>