<svg viewBox="0 0 100 50" fill="currentColor" xmlns="http://www.w3.org/2000/svg">
<path d="M28.3587 26.1159L26.3697 15.7607C26.3697 15.7607 25.4734 13.5125 23.1362 13.5125C20.799 13.5125 14 13.5125 14 13.5125C14 13.5125 25.6475 17.1592 28.3587 26.1159Z" />
<path d="M39.6259 36.2859H45.5318L49.1038 13.4596H43.1269L39.6259 36.2859Z" />
<path d="M34.4743 13.4596L29.0712 29.7164C29.0712 29.7164 28.7617 28.331 28.6295 27.4714C25.5508 20.3961 20.5572 17.804 20.5572 17.804L25.2994 36.2859L31.805 36.2825L40.7929 13.4596H34.4743Z" />
<path d="M57.4824 19.996C57.4824 18.6735 58.5076 17.6882 61.4444 17.6882C63.3561 17.6882 65.5419 19.1628 65.5419 19.1628L66.4993 14.1208C66.4993 14.1208 63.7011 13 60.9641 13C54.7551 13 51.5474 16.1508 51.5474 20.1382C51.5474 27.3491 59.7358 26.3638 59.7358 30.0701C59.7358 30.7016 59.2587 32.1696 55.8479 32.1696C52.4307 32.1696 50.1773 30.8372 50.1773 30.8372L49.1554 35.6742C49.1554 35.6742 51.3411 37 55.5739 37C59.8035 37 65.6773 33.6409 65.6773 28.8104C65.6773 23.0014 57.4824 22.5848 57.4824 19.996Z" />
<path d="M81.4254 13.4596H75.2132L65.5193 36.2825H71.3834L72.5987 33.0259H79.9909L80.626 36.2825H86L81.4254 13.4596ZM74.2364 28.665L77.4473 20.0423L79.1333 28.665H74.2364Z" />
</svg>
